<?xml version="1.0" encoding="UTF-8" standalone="no"?>
<!-- Created with Inkscape (http://www.inkscape.org/) -->

<svg
   version="1.1"
   id="svg2"
   width="4266.6665"
   height="2666.6667"
   viewBox="0 0 4266.6665 2666.6667"
   sodipodi:docname="8533.eps"
   xmlns:inkscape="http://www.inkscape.org/namespaces/inkscape"
   xmlns:sodipodi="http://sodipodi.sourceforge.net/DTD/sodipodi-0.dtd"
   xmlns="http://www.w3.org/2000/svg"
   xmlns:svg="http://www.w3.org/2000/svg">
  <defs
     id="defs6" />
  <sodipodi:namedview
     id="namedview4"
     pagecolor="#ffffff"
     bordercolor="#000000"
     borderopacity="0.25"
     inkscape:showpageshadow="2"
     inkscape:pageopacity="0.0"
     inkscape:pagecheckerboard="0"
     inkscape:deskcolor="#d1d1d1" />
  <g
     id="g8"
     inkscape:groupmode="layer"
     inkscape:label="ink_ext_XXXXXX"
     transform="matrix(1.3333333,0,0,-1.3333333,0,2666.6667)">
    <g
       id="g10"
       transform="scale(0.1)">
      <path
         d="M 0,0 H 32000 V 20000 H 0 Z"
         style="fill:#ffffff;fill-opacity:0;fill-rule:nonzero;stroke:none"
         id="path12" />
      <path
         d="M 30742.8,9275.8 V 9209 c 0,-205.1 -6.2,-424.2 -17.1,-657.3 -9.3,-192.7 -21.7,-394.7 -38.8,-601.3 -35.8,-460 -91.7,-949.4 -164.7,-1440.4 -12.5,-85.5 -26.5,-170.9 -40.4,-254.8 -14,-88.6 -29.6,-177.2 -46.6,-265.7 -77.7,-436.7 -171,-867.1 -281.3,-1274.2 -31.1,-110.3 -62.1,-219.1 -93.2,-324.7 -66.9,-220.7 -138.3,-432 -216,-630.9 v -1.5 c -99.5,-253.3 -206.7,-486.4 -323.2,-693 -10.9,-20.2 -23.3,-42 -35.8,-62.2 -37.2,-65.3 -76.1,-125.8 -114.9,-183.4 -28,-40.3 -55.9,-79.2 -83.9,-116.5 -21.8,-28 -43.5,-54.4 -65.3,-80.8 -27.9,-32.6 -54.4,-63.7 -82.4,-93.2 -10.8,-12.4 -21.7,-23.3 -32.6,-34.2 -21.7,-21.8 -43.5,-43.5 -65.2,-63.7 -71.5,-62.2 -144.5,-116.5 -220.7,-160 -1.5,-1.6 -3.1,-1.6 -4.6,-3.2 -3.2,-3.1 -7.8,-4.6 -10.9,-6.2 -7.8,-4.6 -15.6,-9.3 -21.8,-12.4 -15.5,-7.8 -31.1,-15.5 -46.6,-23.3 l -1796.2,-12.4 -3085.9,-20.2 -6224.6,23.3 -2218.9,7.7 -2220.4,7.8 h -4.7 l -150.7,1.6 -4119.15,13.9 -321.65,1.6 h -83.91 l -1305.2,4.7 -655.71,3.1 -2803.1,10.8 h -34.18 c 0,0 -1.55,1.6 -3.11,3.2 -15.56,12.4 -93.24,79.2 -209.78,195.7 -21.74,21.8 -45.05,45.1 -68.36,70 -24.87,24.8 -49.74,51.2 -76.14,80.7 C 2783.32,3240.7 1728.26,4678 1764,6761.7 c 20.2,1247.7 220.63,3440.2 1724.74,4992.4 24.87,24.9 49.72,51.3 74.58,76.2 6.22,4.6 12.42,10.9 20.2,18.6 1.55,1.6 3.11,3.1 4.67,4.7 7.78,7.7 15.53,14 24.84,23.3 3.12,3.1 6.22,6.2 9.33,9.3 6.23,6.2 12.45,12.4 20.2,18.7 6.23,6.2 13.98,14 21.76,21.7 10.89,7.8 20.2,17.1 31.07,28 0,1.5 0,1.5 1.55,1.5 6.23,4.7 12.45,10.9 18.67,17.1 v 1.6 c 10.87,9.3 21.73,18.6 31.07,27.9 9.31,6.3 17.09,15.6 26.4,23.4 1.55,0 1.55,0 1.55,1.5 14,12.4 27.98,24.9 43.52,35.8 7.78,7.7 17.09,15.5 26.4,23.3 6.23,6.2 14,12.4 20.22,18.6 6.22,3.1 9.31,7.8 15.53,10.9 7.76,7.7 17.09,15.5 26.43,23.3 4.64,4.6 9.31,7.8 13.98,10.9 10.86,9.3 21.75,17 32.62,26.4 1.55,1.5 3.11,3.1 4.67,4.6 17.09,12.5 32.62,26.5 49.71,38.9 14,10.9 27.98,21.7 41.96,32.6 1.55,1.6 4.66,3.1 6.22,4.7 12.42,9.3 24.85,18.6 38.84,27.9 10.87,9.4 23.3,18.7 34.18,26.5 4.67,3.1 7.78,6.2 12.44,9.3 15.52,10.9 31.07,21.7 46.61,34.2 10.87,7.7 23.31,15.5 34.18,23.3 13.98,9.3 26.42,18.6 40.4,27.9 9.31,6.3 18.64,12.5 27.98,20.2 13.97,9.4 27.95,17.1 41.95,26.5 10.87,7.7 23.29,15.5 34.18,23.3 4.67,3.1 7.78,6.2 12.43,7.7 12.42,7.8 23.31,15.6 35.75,23.3 13.96,9.4 27.96,17.1 41.94,26.5 0,0 1.56,0 1.56,1.5 13.97,7.8 27.97,17.1 40.39,24.9 15.54,7.7 29.53,17.1 43.51,26.4 1.54,0 4.65,1.5 6.2,3.1 12.45,7.8 24.88,15.5 37.29,21.7 14.01,9.4 29.54,17.1 43.52,24.9 13.99,9.3 29.53,17.1 43.51,24.9 0,0 0,1.5 1.56,1.5 13.98,7.8 29.51,15.6 43.51,24.9 15.53,7.8 29.51,15.5 43.51,23.3 3.11,1.5 4.65,1.5 6.2,3.1 13.98,7.8 27.97,14 41.95,21.8 13.99,7.7 27.99,13.9 41.96,21.7 10.88,6.2 23.32,12.4 34.19,17.1 51.27,26.4 104.11,52.8 156.93,77.7 93.22,43.5 188.02,85.5 285.9,124.3 13.99,6.2 29.54,12.4 43.51,17.1 14,6.2 27.96,10.9 41.96,17.1 13.98,6.2 27.96,10.9 43.51,17.1 23.29,9.3 46.6,17.1 69.91,26.4 15.54,4.7 31.07,10.9 46.63,15.5 13.98,6.2 27.95,10.9 41.95,15.6 17.07,6.2 34.18,12.4 52.82,18.6 0,0 0,0 1.54,0 1.56,1.6 3.11,1.6 4.67,1.6 14,4.6 27.98,10.8 43.51,15.5 20.2,6.2 41.95,14 63.71,20.2 18.65,6.2 37.29,12.4 55.94,18.7 1.55,0 1.55,0 3.11,0 15.53,6.2 32.62,10.8 49.73,15.5 7.76,3.1 15.52,4.7 23.29,7.8 17.09,4.6 34.18,9.3 49.74,13.9 6.2,1.6 10.87,3.2 15.53,4.7 20.2,6.2 40.38,10.9 59.05,17.1 20.18,4.7 40.4,10.9 60.58,17.1 7.78,1.5 15.55,3.1 23.33,4.6 15.52,4.7 31.07,9.4 46.6,12.5 3.12,1.5 6.2,3.1 9.32,3.1 21.77,6.2 45.07,10.9 66.82,17.1 20.2,4.6 40.4,9.3 60.6,14 4.67,1.5 10.89,3.1 17.09,4.6 21.76,4.7 41.96,9.3 63.71,15.5 24.85,4.7 48.18,9.4 71.47,15.6 h 1.56 c 24.86,4.7 48.17,10.9 71.46,15.5 26.43,4.7 51.3,10.9 76.14,15.6 12.45,3.1 24.87,6.2 35.74,9.3 12.44,3.1 24.89,6.2 37.29,9.3 10.88,1.6 21.77,4.7 32.64,7.8 10.87,3.1 21.76,4.6 34.18,7.8 9.34,3.1 20.2,6.2 31.09,9.3 10.87,3.1 21.74,4.7 32.62,7.8 10.89,3.1 20.21,6.2 29.52,9.3 21.77,6.2 45.07,12.4 66.81,18.6 10.88,3.1 20.21,6.2 31.09,9.4 20.18,6.2 40.4,13.9 60.59,20.1 1.56,0 1.56,0 3.11,0 20.19,6.3 40.41,14 59.05,20.2 21.75,7.8 40.4,14 60.6,21.8 20.19,7.8 40.4,14 60.59,21.7 1.57,1.6 3.1,1.6 6.21,3.2 27.98,10.8 57.51,21.7 85.47,32.6 v 1.5 c 9.33,3.1 18.64,6.3 26.42,10.9 12.42,4.7 23.31,9.3 34.18,14 17.09,7.8 34.18,14 51.27,21.7 9.33,4.7 20.22,9.4 29.53,14 29.54,12.5 57.49,26.5 87.01,40.4 15.55,7.8 32.62,15.6 48.17,23.3 15.54,7.8 31.08,15.6 46.63,23.3 1.55,1.6 3.1,1.6 3.1,3.2 17.08,7.7 32.63,17.1 49.72,24.8 1.54,1.6 3.09,3.1 6.2,3.1 12.44,7.8 24.87,14 37.29,21.8 6.23,3.1 12.44,7.8 20.22,10.9 9.32,4.6 18.63,10.8 27.96,15.5 7.78,4.7 14,9.3 21.76,12.4 15.53,9.3 31.09,18.7 46.6,28 14,9.3 29.53,17.1 43.51,26.4 15.56,10.9 32.62,20.2 48.18,31.1 15.53,9.3 31.07,20.2 46.62,29.5 l 1.56,1.6 c 12.4,7.7 23.29,15.5 34.18,23.3 7.75,4.6 13.98,9.3 20.18,14 9.33,4.6 17.11,10.8 24.86,17.1 9.34,4.6 17.09,10.8 24.87,17 9.33,6.3 17.09,10.9 24.85,17.1 9.33,6.2 17.11,12.5 26.44,18.7 6.2,4.6 12.4,9.3 18.63,14 13.99,9.3 26.42,20.2 40.4,31 1.55,1.6 4.66,3.1 6.22,4.7 13.98,9.3 27.96,20.2 40.4,31.1 18.64,14 38.84,29.5 57.49,45 13.98,10.9 27.98,21.8 41.96,34.2 1.53,1.6 4.64,4.7 6.2,6.2 10.89,7.8 21.77,17.1 31.09,26.5 3.09,1.5 4.64,3.1 7.75,4.6 4.67,4.7 10.89,10.9 17.11,15.5 3.11,3.2 6.2,4.7 9.32,7.8 4.66,4.7 9.31,7.8 13.97,12.4 3.12,3.2 4.67,4.7 7.78,6.3 1.56,1.5 3.11,3.1 3.11,3.1 1.56,1.5 3.11,3.1 3.11,3.1 7.76,6.2 15.54,14 23.3,20.2 10.89,9.3 20.21,18.6 31.08,28 3.1,3.1 7.76,6.2 10.87,10.8 9.33,7.8 18.67,17.1 29.53,26.4 1.54,1.6 4.65,4.7 7.76,7.8 3.11,1.6 4.67,4.7 7.78,6.2 10.89,10.9 21.76,20.2 31.07,31.1 3.1,1.6 4.66,3.1 6.22,4.7 6.22,6.2 10.89,10.8 17.09,17.1 4.66,3.1 7.78,6.2 10.87,10.8 3.11,1.6 6.22,4.7 7.77,6.3 3.12,4.6 6.22,6.2 9.34,9.3 3.11,4.6 7.77,7.7 10.86,10.8 1.56,1.6 4.67,4.7 7.78,7.8 3.09,3.1 4.65,6.2 7.76,7.8 4.67,4.7 9.33,9.3 14,14 10.87,10.8 20.18,20.2 31.07,31 18.64,20.2 38.84,40.4 59.04,60.7 0,1.5 1.56,3.1 3.11,3.1 9.32,10.8 18.65,20.2 27.98,31 l 7.76,7.8 c 13.98,15.5 29.53,32.6 43.51,48.2 1.53,1.5 3.09,3.1 4.65,4.6 1.55,3.1 4.66,4.7 6.22,7.8 15.55,17.1 31.07,32.6 45.06,49.7 3.11,3.1 4.67,4.7 6.23,6.2 l 1.55,3.1 c 17.07,18.7 32.62,37.3 49.72,56 1.55,1.5 3.11,3.1 4.64,4.6 1.56,3.1 3.11,4.7 4.67,6.3 17.11,20.2 34.18,40.3 49.73,59 17.09,21.8 34.18,42 51.27,62.2 17.09,20.2 34.2,41.9 51.27,62.1 1.55,1.6 3.11,3.1 3.11,4.7 12.45,15.5 24.87,31.1 37.29,48.1 3.11,3.2 6.22,6.3 9.33,9.4 7.78,9.3 15.54,20.2 21.76,29.5 6.2,7.8 12.42,14 17.08,21.7 20.21,24.9 38.86,51.3 59.05,76.2 48.16,63.7 94.79,128.9 142.96,194.2 1.56,1.6 3.11,4.7 6.23,7.8 10.86,15.5 20.18,29.5 31.06,45 6.22,7.8 12.43,15.6 17.09,23.3 13.98,18.7 26.42,35.8 38.85,54.4 4.64,6.2 9.31,12.5 12.42,18.7 9.33,12.4 20.2,26.4 29.51,40.4 9.34,12.4 18.67,26.4 27.99,40.4 37.3,54.4 76.15,110.3 113.44,166.2 4.64,4.7 7.75,10.9 12.42,15.6 1.54,1.5 1.54,1.5 1.54,3.1 3.11,4.6 6.22,9.3 9.33,14 15.55,23.3 32.62,46.6 48.17,69.9 18.65,27.9 37.3,55.9 55.94,82.3 79.25,118.1 156.94,234.7 236.17,351.2 14,21.8 28,41.9 43.5,62.2 0,1.5 1.6,3.1 3.1,4.6 3.1,6.2 6.2,10.9 10.9,15.6 10.9,17 23.3,34.1 34.2,52.8 9.3,12.4 18.6,26.4 27.9,40.4 6.3,7.8 12.5,17.1 18.7,26.4 10.9,14 20.2,28 31.1,43.5 3.1,4.7 6.2,9.3 9.3,14 1.6,3.1 4.7,6.2 6.2,7.8 12.4,18.6 24.9,35.7 37.3,52.8 3.1,4.7 6.2,9.3 9.3,14 15.6,21.7 31.1,45 46.6,66.8 15.6,21.7 32.7,43.5 48.2,65.3 0,1.5 0,1.5 0,1.5 3.1,3.1 6.2,7.8 7.8,10.9 l 4.6,4.6 c 4.7,6.2 9.4,12.5 14,20.2 3.1,3.1 4.7,7.8 7.8,10.9 6.2,7.8 10.9,14 15.5,21.8 7.8,10.8 17.1,21.7 24.9,32.6 23.3,31.1 46.6,62.2 69.9,93.2 21.8,28 42,56 63.7,83.9 12.5,17.1 26.4,34.2 38.9,49.8 9.3,10.8 17.1,23.3 26.4,34.1 10.9,12.5 21.7,26.5 32.6,40.4 10.9,14 21.8,28 34.2,40.4 10.9,14 21.8,28 32.6,42 68.4,82.3 138.3,163.1 209.8,242.4 12.4,12.4 24.9,26.4 37.3,40.4 21.7,23.3 45.1,48.1 68.3,71.5 10.9,12.4 21.8,23.3 32.7,35.7 l 87,87 c 10.9,10.9 23.3,21.8 34.2,32.6 7.8,7.8 15.5,15.6 23.3,21.8 9.3,9.3 18.6,18.6 28,26.4 10.9,10.9 23.3,21.8 35.7,34.2 1.6,1.6 4.7,3.1 6.2,6.2 12.4,10.9 24.9,21.8 37.3,32.6 14,12.5 28,24.9 42,37.3 12.4,10.9 24.8,23.3 38.8,34.2 1.6,1.6 4.7,4.7 6.2,6.2 14,10.9 26.4,21.8 38.9,32.7 12.4,10.8 26.4,21.7 38.8,31.1 3.1,3.1 6.2,4.6 7.8,7.7 14,10.9 26.4,20.2 40.4,31.1 14,12.4 29.5,23.3 43.5,35.7 15.5,10.9 31.1,23.3 45,34.2 7.8,6.2 15.6,10.9 23.4,17.1 7.7,4.7 15.5,10.9 21.7,17.1 7.8,4.7 14,9.3 21.8,15.5 23.3,17.1 46.6,34.2 71.4,49.7 7.8,6.3 14,10.9 21.8,15.6 7.8,6.2 17.1,12.4 24.9,17.1 7.7,6.2 15.5,10.9 24.8,15.5 15.5,10.9 31.1,21.8 46.6,32.7 17.1,9.3 32.7,20.1 49.7,31 12.5,7.8 26.5,17.1 40.4,24.9 4.7,3.1 9.4,6.2 14,7.8 0,1.5 1.6,1.5 1.6,1.5 14,7.8 26.4,17.1 40.4,24.9 17.1,10.8 35.7,20.2 52.8,31 9.3,4.7 17.1,9.4 26.4,14 9.4,6.3 18.7,10.9 28,15.6 7.8,4.6 15.5,9.3 23.3,12.4 94.8,52.8 194.2,102.5 296.8,147.6 6.2,3.1 12.4,6.2 18.6,7.8 14,6.2 28,12.4 42,18.6 14,6.2 26.4,12.5 40.4,17.1 4.6,1.6 9.3,3.1 12.4,6.3 10.9,3.1 20.2,7.7 29.5,10.8 14,6.2 28,12.4 42,17.1 12.4,4.7 23.3,9.3 34.2,14 6.2,1.5 10.9,3.1 17.1,6.2 17.1,6.2 32.6,12.4 49.7,17.1 57.5,21.8 118.1,41.9 178.7,62.2 18.6,6.2 35.7,10.8 54.4,17.1 23.3,6.2 45,13.9 68.3,20.1 15.6,4.7 31.1,7.8 45.1,12.5 6.2,1.5 10.9,3.1 17.1,4.6 18.6,4.7 38.8,10.9 59,15.6 20.2,6.2 42,10.8 63.7,15.5 20.2,6.2 42,10.9 63.7,15.6 20.3,4.6 42,9.3 62.2,13.9 1.5,1.6 3.1,1.6 4.7,1.6 20.2,4.7 43.5,9.3 65.2,14 581.2,118.1 1261.7,155.4 2071.3,83.9 125.8,-10.9 248.6,-28 368.2,-49.7 1129.7,-198.9 1950.1,-817.4 2733.2,-1266.4 612.2,-349.6 1201.1,-598.2 1898.8,-464.6 76.1,14 152.3,32.6 229.9,55.9 21.8,6.3 43.6,12.5 63.7,18.7 21.8,6.2 42,12.4 63.7,18.6 85.5,26.5 171,49.8 256.4,74.6 38.9,10.9 77.7,21.8 116.6,31.1 4.6,1.5 7.7,3.1 10.9,3.1 20.1,6.2 38.8,10.9 57.4,15.5 20.3,6.3 40.4,10.9 59.1,15.6 68.3,18.6 135.2,35.7 202,51.3 23.3,6.2 48.1,12.4 73,18.6 122.8,29.5 245.5,57.5 366.7,83.9 20.2,4.7 42,9.3 62.2,14 24.8,4.6 48.1,9.3 71.5,15.5 21.7,3.1 43.5,7.8 65.2,12.5 20.2,4.6 38.8,7.7 59,12.4 10.9,1.5 21.8,4.7 32.7,6.2 17.1,3.1 34.2,6.2 51.3,9.3 13.9,3.1 26.4,6.2 40.4,7.8 15.5,3.1 31,6.2 46.6,9.3 38.8,6.2 76.1,14 113.4,20.2 12.4,1.6 24.9,4.7 37.3,6.2 37.3,6.2 74.6,12.5 110.3,18.7 4.7,0 7.8,1.5 12.4,1.5 15.6,3.1 31.1,4.7 46.7,7.8 21.7,3.1 43.5,6.2 65.2,10.9 48.2,6.2 94.8,14 141.4,20.2 18.7,3.1 37.3,4.6 55.9,7.7 28,3.2 54.4,6.3 82.4,10.9 h 4.7 c 149.1,20.2 296.7,35.8 441.2,46.6 21.8,1.6 40.4,3.1 60.6,4.7 49.8,4.7 99.5,7.8 149.2,10.9 4.7,1.5 10.9,1.5 14,1.5 26.4,1.6 52.8,3.1 79.3,4.7 27.9,1.5 54.3,1.5 80.8,3.1 34.1,1.6 68.3,3.1 100.9,3.1 18.7,1.6 37.3,3.1 56,3.1 26.4,0 52.8,1.6 77.7,1.6 38.8,1.5 76.1,1.5 113.4,1.5 115,0 225.3,-1.5 335.6,-6.2 38.9,-1.5 76.2,-3.1 113.4,-4.7 49.8,-1.5 99.5,-4.6 147.7,-9.3 62.1,-4.6 122.7,-9.3 181.8,-15.5 54.3,-4.7 108.7,-10.9 161.6,-17.1 21.7,-1.6 41.9,-4.7 63.7,-7.8 21.7,-3.1 43.5,-6.2 65.2,-9.3 21.8,-3.1 43.5,-6.2 63.7,-9.3 90.1,-14 178.7,-29.6 267.3,-46.6 105.7,-20.2 209.7,-43.5 310.8,-68.4 46.6,-12.4 91.6,-23.3 136.7,-37.3 31.1,-7.8 62.1,-17.1 93.2,-26.4 70,-20.2 136.8,-42 205.1,-65.3 32.7,-10.9 63.7,-21.7 94.8,-32.6 97.9,-35.7 194.2,-74.6 289,-115 l 17.1,-7.8 c 17.1,-7.7 35.7,-15.5 52.9,-23.3 60.5,-27.9 121.2,-55.9 180.2,-85.4 23.3,-10.9 46.6,-23.3 69.9,-35.8 59.1,-31 115,-60.6 170.9,-93.2 43.5,-24.9 87.1,-49.7 129,-76.1 31.1,-18.7 62.2,-38.9 93.2,-59.1 48.2,-31 96.4,-63.7 144.5,-96.3 28,-20.2 57.5,-40.4 85.5,-62.2 51.3,-35.7 101,-74.5 150.7,-113.4 52.8,-41.9 105.7,-85.4 155.4,-129 51.3,-43.5 102.6,-88.5 150.7,-135.1 82.4,-76.2 161.6,-153.9 237.8,-236.2 27.9,-28 52.8,-56 79.2,-85.5 104.1,-115 203.6,-234.6 298.3,-358.9 20.2,-24.9 37.3,-48.2 54.4,-71.5 10.9,-15.5 21.8,-29.5 31.1,-45.1 32.6,-41.9 60.6,-82.3 87,-121.2 l 34.2,-48.1 c 1002.2,-1482.4 1441.9,-3483.7 1685.9,-5460.2 27.9,-217.5 42,-495.6 43.5,-815.7"
         style="fill:#aec3ff;fill-opacity:1;fill-rule:nonzero;stroke:none"
         id="path14" />
      <path
         d="M 25394.5,17826.5 V 3478.5 H 8268.3 v 10674.7 c 13.98,10.9 27.98,21.8 41.96,34.2 1.53,1.6 4.64,4.7 6.2,6.2 10.89,7.8 21.77,17.1 31.09,26.5 3.09,1.5 4.64,3.1 7.75,4.6 4.67,4.7 10.89,10.9 17.11,15.5 3.11,3.2 6.2,4.7 9.32,7.8 4.66,4.7 9.31,7.8 13.97,12.4 3.12,3.2 4.67,4.7 7.78,6.3 1.56,1.5 3.11,3.1 3.11,3.1 1.56,1.5 3.11,3.1 3.11,3.1 7.76,6.2 15.54,14 23.3,20.2 10.89,9.3 20.21,18.6 31.08,28 3.1,3.1 7.76,6.2 10.87,10.8 9.33,7.8 18.67,17.1 29.53,26.4 1.54,1.6 4.65,4.7 7.76,7.8 3.11,1.6 4.67,4.7 7.78,6.2 10.89,10.9 21.76,20.2 31.07,31.1 3.1,1.6 4.66,3.1 6.22,4.7 6.22,6.2 10.89,10.8 17.09,17.1 4.66,3.1 7.78,6.2 10.87,10.8 3.11,1.6 6.22,4.7 7.77,6.3 3.12,4.6 6.22,6.2 9.34,9.3 3.11,4.6 7.77,7.7 10.86,10.8 1.56,1.6 4.67,4.7 7.78,7.8 3.09,3.1 4.65,6.2 7.76,7.8 4.67,4.7 9.33,9.3 14,14 10.87,10.8 20.18,20.2 31.07,31 18.64,20.2 38.84,40.4 59.04,60.7 0,1.5 1.56,3.1 3.11,3.1 9.32,10.8 18.65,20.2 27.98,31 l 7.76,7.8 c 13.98,15.5 29.53,32.6 43.51,48.2 1.53,1.5 3.09,3.1 4.65,4.6 1.55,3.1 4.66,4.7 6.22,7.8 15.55,17.1 31.07,32.6 45.06,49.7 3.11,3.1 4.67,4.7 6.23,6.2 l 1.55,3.1 c 17.07,18.7 32.62,37.3 49.72,56 1.55,1.5 3.11,3.1 4.64,4.6 1.56,3.1 3.11,4.7 4.67,6.3 17.11,20.2 34.18,40.3 49.73,59 17.09,21.8 34.18,42 51.27,62.2 17.09,20.2 34.2,41.9 51.27,62.1 1.55,1.6 3.11,3.1 3.11,4.7 12.45,15.5 24.87,31.1 37.29,48.1 10.88,12.5 21.78,26.5 31.09,38.9 6.2,7.8 12.42,14 17.08,21.7 20.21,24.9 38.86,51.3 59.05,76.2 48.16,63.7 94.79,128.9 142.96,194.2 1.56,1.6 3.11,4.7 6.23,7.8 10.86,15.5 20.18,29.5 31.06,45 6.22,7.8 12.43,15.6 17.09,23.3 13.98,18.7 26.42,35.8 38.85,54.4 4.64,6.2 9.31,12.5 12.42,18.7 9.33,12.4 20.2,26.4 29.51,40.4 9.34,12.4 18.67,26.4 27.99,40.4 37.3,54.4 76.15,110.3 113.44,166.2 4.64,4.7 7.75,10.9 12.42,15.6 1.54,1.5 1.54,1.5 1.54,3.1 3.11,4.6 6.22,9.3 9.33,14 15.55,23.3 32.62,46.6 48.17,69.9 18.65,27.9 37.3,55.9 55.94,82.3 79.25,118.1 156.94,234.7 236.17,351.2 14,21.8 28,41.9 43.5,62.2 0,1.5 1.6,3.1 3.1,4.6 3.1,6.2 6.2,10.9 10.9,15.6 10.9,17 23.3,34.1 34.2,52.8 9.3,12.4 18.6,26.4 27.9,40.4 6.3,7.8 12.5,17.1 18.7,26.4 10.9,14 20.2,28 31.1,43.5 3.1,4.7 6.2,9.3 9.3,14 1.6,3.1 4.7,6.2 6.2,7.8 12.4,18.6 24.9,35.7 37.3,52.8 3.1,4.7 6.2,9.3 9.3,14 15.6,21.7 31.1,45 46.6,66.8 15.6,21.7 32.7,43.5 48.2,65.3 0,1.5 0,1.5 0,1.5 3.1,3.1 6.2,7.8 7.8,10.9 l 4.6,4.6 c 4.7,6.2 9.4,12.5 14,20.2 3.1,3.1 4.7,7.8 7.8,10.9 6.2,7.8 10.9,14 15.5,21.8 7.8,10.8 17.1,21.7 24.9,32.6 23.3,31.1 46.6,62.2 69.9,93.2 21.8,28 42,56 63.7,83.9 12.5,17.1 26.4,34.2 38.9,49.8 9.3,10.8 17.1,23.3 26.4,34.1 10.9,12.5 21.7,26.5 32.6,40.4 10.9,14 21.8,28 34.2,40.4 10.9,14 21.8,28 32.6,42 68.4,82.3 138.3,163.1 209.8,242.4 12.4,12.4 24.9,26.4 37.3,40.4 21.7,23.3 45.1,48.1 68.3,71.5 10.9,12.4 21.8,23.3 32.7,35.7 l 87,87 c 10.9,10.9 23.3,21.8 34.2,32.6 7.8,7.8 15.5,15.6 23.3,21.8 9.3,9.3 18.6,18.6 28,26.4 10.9,10.9 23.3,21.8 35.7,34.2 1.6,1.6 4.7,3.1 6.2,6.2 12.4,10.9 24.9,21.8 37.3,32.6 14,12.5 28,24.9 42,37.3 12.4,10.9 24.8,23.3 38.8,34.2 1.6,1.6 4.7,4.7 6.2,6.2 14,10.9 26.4,21.8 38.9,32.7 12.4,10.8 26.4,21.7 38.8,31.1 3.1,3.1 6.2,4.6 7.8,7.7 14,10.9 26.4,20.2 40.4,31.1 14,12.4 29.5,23.3 43.5,35.7 15.5,10.9 31.1,23.3 45,34.2 7.8,6.2 15.6,10.9 23.4,17.1 7.7,4.7 15.5,10.9 21.7,17.1 7.8,4.7 14,9.3 21.8,15.5 23.3,17.1 46.6,34.2 71.4,49.7 7.8,6.3 14,10.9 21.8,15.6 7.8,6.2 17.1,12.4 24.9,17.1 7.7,6.2 15.5,10.9 24.8,15.5 15.5,10.9 31.1,21.8 46.6,32.7 17.1,9.3 32.7,20.1 49.7,31 12.5,7.8 26.5,17.1 40.4,24.9 4.7,3.1 9.4,6.2 14,7.8 0,1.5 1.6,1.5 1.6,1.5 14,7.8 26.4,17.1 40.4,24.9 17.1,10.8 35.7,20.2 52.8,31 9.3,4.7 17.1,9.4 26.4,14 9.4,6.3 18.7,10.9 28,15.6 7.8,4.6 15.5,9.3 23.3,12.4 94.8,52.8 194.2,102.5 296.8,147.6 6.2,3.1 12.4,6.2 18.6,7.8 14,6.2 28,12.4 42,18.6 14,6.2 26.4,12.5 40.4,17.1 4.6,1.6 9.3,3.1 12.4,6.3 10.9,3.1 20.2,7.7 29.5,10.8 14,6.2 28,12.4 42,17.1 12.4,4.7 23.3,9.3 34.2,14 6.2,1.5 10.9,3.1 17.1,6.2 17.1,6.2 32.6,12.4 49.7,17.1 57.5,21.8 118.1,41.9 178.7,62.2 18.6,6.2 35.7,10.8 54.4,17.1 23.3,6.2 45,13.9 68.3,20.1 15.6,4.7 31.1,7.8 45.1,12.5 6.2,1.5 10.9,3.1 17.1,4.6 18.6,4.7 38.8,10.9 59,15.6 20.2,6.2 42,10.8 63.7,15.5 20.2,6.2 42,10.9 63.7,15.6 20.3,4.6 42,9.3 62.2,13.9 1.5,1.6 3.1,1.6 4.7,1.6 20.2,4.7 43.5,9.3 65.2,14 581.2,118.1 1261.7,155.4 2071.3,83.9 125.8,-10.9 248.6,-28 368.2,-49.7 1129.7,-198.9 1950.1,-817.4 2733.2,-1266.4 612.2,-349.6 1201.1,-598.2 1898.8,-464.6 76.1,14 152.3,32.6 229.9,55.9 21.8,6.3 43.6,12.5 63.7,18.7 21.8,6.2 42,12.4 63.7,18.6 85.5,26.5 171,49.8 256.4,74.6 38.9,10.9 77.7,21.8 116.6,31.1 4.6,1.5 7.7,3.1 10.9,3.1 20.1,6.2 38.8,10.9 57.4,15.5 20.3,6.3 40.4,10.9 59.1,15.6 68.3,18.6 135.2,35.7 202,51.3 23.3,6.2 48.1,12.4 73,18.6 122.8,29.5 245.5,57.5 366.7,83.9 20.2,4.7 42,9.3 62.2,14 24.8,4.6 48.1,9.3 71.5,15.5 21.7,3.1 43.5,7.8 65.2,12.5 20.2,4.6 38.8,7.7 59,12.4 10.9,1.5 21.8,4.7 32.7,6.2 17.1,3.1 34.2,6.2 51.3,9.3 13.9,3.1 26.4,6.2 40.4,7.8 15.5,3.1 31,6.2 46.6,9.3 38.8,6.2 76.1,14 113.4,20.2 12.4,1.6 24.9,4.7 37.3,6.2 37.3,6.2 74.6,12.5 110.3,18.7 4.7,0 7.8,1.5 12.4,1.5 15.6,3.1 31.1,4.7 46.7,7.8 21.7,3.1 43.5,6.2 65.2,10.9 48.2,6.2 94.8,14 141.4,20.2 18.7,3.1 37.3,4.6 55.9,7.7 28,3.2 54.4,6.3 82.4,10.9 h 4.7 c 149.1,20.2 296.7,35.8 441.2,46.6 21.8,1.6 40.4,3.1 60.6,4.7 49.8,4.7 99.5,7.8 149.2,10.9 4.7,1.5 10.9,1.5 14,1.5 26.4,1.6 52.8,3.1 79.3,4.7 27.9,1.5 54.3,1.5 80.8,3.1 34.1,1.6 68.3,3.1 100.9,3.1 18.7,1.6 37.3,3.1 56,3.1 26.4,0 52.8,1.6 77.7,1.6 38.8,1.5 76.1,1.5 113.4,1.5 115,0 225.3,-1.5 335.6,-6.2 38.9,-1.5 76.2,-3.1 113.4,-4.7 49.8,-1.5 99.5,-4.6 147.7,-9.3 62.1,-4.6 122.7,-9.3 181.8,-15.5 54.3,-4.7 108.7,-10.9 161.6,-17.1 21.7,-1.6 41.9,-4.7 63.7,-7.8 21.7,-3.1 43.5,-6.2 65.2,-9.3 21.8,-3.1 43.5,-6.2 63.7,-9.3"
         style="fill:#aec3ff;fill-opacity:1;fill-rule:nonzero;stroke:none"
         id="path16" />
      <path
         d="m 30742.6,9209.2 c -2.4,-1504 -286.6,-3875.9 -898.4,-5451.1 -140.1,-361.1 -297.6,-680.3 -472.7,-937.7 -168.4,-247.3 -353.1,-437.3 -554.7,-552.5 -4.1,-2.3 -8,-4.6 -12,-6.7 -7.2,-4.1 -14.4,-8 -21.7,-11.8 -15.4,-8.1 -31,-15.8 -46.6,-23 l -1795.6,-12.2 v 7845.5 c -3207.5,1472.5 -3825.5,6330.6 -3938.7,7754 573.5,77.3 1104,104.4 1594.7,86.4 278.6,-10.2 544.4,-34.8 798.1,-73.1 513.9,-77.5 977.8,-210.7 1396.9,-392.1 170.7,-73.7 334.1,-155.5 490.2,-244.8 214,-122.3 414.8,-258.6 603.2,-407.6 424.1,-335.2 785.5,-734.4 1094.3,-1182.3 l 28.7,-42 4.5,-6.5 c 1002.3,-1482.4 1443,-3483.4 1687,-5459.6 27.3,-221.5 41.8,-503.1 42.7,-827.1 0.1,-18.4 0.1,-37 0.1,-55.8"
         style="fill:#f99746;fill-opacity:1;fill-rule:nonzero;stroke:none"
         id="path18" />
      <path
         d="m 10491.9,16974.1 c -172.2,-920.4 -531.95,-2429.3 -1219.66,-3870.2 -54.55,-114.3 -111.23,-228.4 -169.94,-341.5 -240.76,-463.5 -517.32,-914.1 -834.52,-1329.6 -312.93,-410.1 -665.37,-785.7 -1062.04,-1105.4 V 2254.5 l -656.73,2.4 -2802.24,10.4 -35.02,0.1 c 0,0 -145.58,119.5 -357.16,350.2 -571.98,623.6 -1626.27,2059.7 -1590.92,4144.4 21.22,1246.9 220.67,3440.5 1724.72,4991.9 24.8,25.7 50.06,51.2 75.65,76.3 5.5,5.4 11.79,11.6 18.86,18.4 7.52,7.4 15.03,14.8 22.67,22.1 3.14,3.1 6.29,6.1 9.43,9.1 13.92,13.4 27.94,26.7 42.09,40 12.46,11.8 24.92,23.3 37.6,35 l 1.91,1.7 c 6.51,6 13.02,12 19.64,17.9 10.22,9.5 20.54,18.7 30.86,27.9 8.87,8 17.74,15.8 26.61,23.6 l 1.23,1.1 c 14.03,12.6 28.29,24.9 42.54,37 8.87,7.8 17.73,15.4 26.71,23 7.08,6.1 14.15,12 21.33,18 4.71,4 9.32,7.9 14.03,11.8 9.2,7.6 18.41,15.3 27.73,22.9 4.38,3.7 8.86,7.4 13.35,10.9 10.78,8.9 21.44,17.6 32.33,26.2 1.8,1.6 3.71,3.1 5.5,4.5 16.28,13 32.66,26 49.16,38.8 13.81,10.9 27.84,21.7 41.87,32.4 2.13,1.7 4.26,3.2 6.39,4.9 12.58,9.7 25.37,19.2 38.17,28.7 11.78,8.9 23.68,17.7 35.58,26.4 3.82,2.9 7.74,5.7 11.67,8.6 15.49,11.3 31.2,22.6 46.92,33.7 11.22,8.2 22.56,16.2 33.89,24.1 13.25,9.3 26.61,18.6 39.97,27.7 9.54,6.6 19.19,13.2 28.84,19.7 13.69,9.2 27.39,18.4 41.08,27.5 11.45,7.7 23.01,15.3 34.57,22.7 4.26,2.9 8.53,5.7 12.8,8.3 11.78,7.8 23.57,15.4 35.47,22.9 13.91,8.9 27.94,17.7 41.98,26.5 l 1.23,0.8 c 13.69,8.5 27.5,17 41.31,25.5 14.25,8.6 28.5,17.4 42.87,25.9 2.25,1.3 4.38,2.6 6.51,3.9 12.24,7.3 24.59,14.6 36.93,21.8 14.48,8.5 29.07,16.9 43.77,25.4 14.37,8.2 28.74,16.4 43.22,24.5 l 1.12,0.6 c 14.81,8.3 29.75,16.6 44.67,24.8 14.37,8 28.74,15.7 43.22,23.6 2.13,1.1 4.26,2.2 6.28,3.4 13.7,7.2 27.5,14.5 41.31,21.8 13.8,7.3 27.61,14.5 41.53,21.7 11.67,5.9 23.23,11.9 34.9,17.7 51.41,26.1 103.71,51.6 156.81,76.5 92.93,43.6 188.45,85.4 286.67,125.3 14.02,5.8 28.16,11.5 42.31,17.1 14.14,5.6 28.29,11.2 42.54,16.7 14.25,5.6 28.62,11.1 42.99,16.6 23.34,9 46.92,17.8 70.6,26.4 15.15,5.6 30.31,11.2 45.68,16.6 14.37,5.3 28.73,10.4 43.21,15.4 17.18,6.1 34.35,12 51.63,18 l 1.69,0.5 c 1.46,0.6 3.03,1 4.49,1.5 14.48,5 29.07,10 43.66,14.8 21.1,7 42.21,13.9 63.53,20.8 18.74,6 37.6,12.1 56.57,17.9 1.01,0.4 2.02,0.7 3.03,1 16.39,5.1 32.78,10.1 49.28,15.2 8.19,2.5 16.38,4.9 24.58,7.4 16.38,4.9 32.88,9.8 49.49,14.6 5.17,1.6 10.22,3 15.27,4.5 19.64,5.7 39.51,11.3 59.38,16.8 20.09,5.6 40.18,11.2 60.49,16.6 7.41,2 14.82,4.1 22.23,6 15.6,4.2 31.43,8.4 47.25,12.4 3.15,0.9 6.17,1.7 9.32,2.5 22.44,5.7 44.9,11.5 67.57,17.1 19.75,4.9 39.62,9.7 59.6,14.6 5.61,1.3 11.22,2.6 16.83,3.9 21.56,5.1 43.22,10.2 64.99,15.1 23.35,5.4 46.81,10.6 70.38,15.8 l 2.47,0.5 c 23.79,5.2 47.59,10.3 71.61,15.3 25.14,5.3 50.17,10.6 74.98,16.3 12.35,2.8 24.69,5.6 36.93,8.5 12.34,2.8 24.58,5.8 36.7,8.7 11,2.7 22.11,5.4 33,8.2 11,2.7 22,5.5 32.88,8.5 10.78,2.6 21.56,5.6 32.22,8.4 10.88,2.9 21.77,5.8 32.66,8.8 9.88,2.7 19.64,5.5 29.41,8.2 22.22,6.3 44.33,12.8 66.22,19.4 10.55,3.2 20.99,6.3 31.43,9.6 20.54,6.3 40.86,12.8 61.06,19.4 l 1.91,0.6 c 20.31,6.6 40.52,13.4 60.5,20.3 20.31,6.9 40.4,14 60.5,21.3 19.97,7.2 39.73,14.6 59.48,22 2.03,0.8 4.04,1.6 5.95,2.2 29.07,11.2 57.7,22.5 86.09,34.1 l 0.67,0.3 c 8.76,3.5 17.4,7.1 26.05,10.7 11.56,4.8 23.12,9.6 34.68,14.6 16.72,7.1 33.34,14.4 49.84,21.7 10.32,4.6 20.64,9.2 30.97,13.9 28.96,13.2 57.47,26.7 85.76,40.3 16.5,7.9 32.77,16 48.93,24.2 15.49,7.7 30.87,15.5 46.25,23.4 1.23,0.7 2.58,1.4 3.81,2.1 16.28,8.4 32.44,16.9 48.49,25.7 2.02,1 4.04,2.1 6.18,3.2 12.79,7 25.59,13.9 38.27,21 6.4,3.6 12.8,7.2 19.19,10.8 9.65,5.2 19.2,10.8 28.62,16.3 7.41,4.1 14.71,8.4 22.12,12.6 15.6,9.1 30.98,18.2 46.35,27.5 14.48,8.7 28.85,17.4 43.11,26.3 16.38,10.1 32.66,20.3 48.82,30.8 15.6,9.8 30.98,19.9 46.36,30.1 l 1.79,1.2 c 11.45,7.5 22.9,15.1 34.24,23 6.73,4.4 13.46,9 20.2,13.7 8.42,5.6 16.72,11.3 25.03,17.1 8.31,5.7 16.5,11.5 24.69,17.3 8.42,6 16.84,11.9 25.26,18.1 8.42,6 16.72,11.9 25.03,18.1 6.39,4.6 12.68,9.2 18.97,13.9 13.58,10 27.05,20 40.4,30.3 2.47,1.7 4.83,3.5 7.19,5.4 13.35,10.1 26.6,20.3 39.84,30.6 19.2,14.8 38.06,30 56.91,45.1 14.03,11.4 28.06,22.8 41.98,34.4 6.62,5.5 13.36,11.1 19.98,16.6 6.17,5.2 12.23,10.3 18.29,15.5 2.25,1.9 4.49,3.7 6.63,5.7 6.06,5.1 12.01,10.1 17.96,15.4 2.91,2.5 5.83,4.9 8.75,7.5 4.94,4.3 9.99,8.5 14.93,12.9 2.24,2 4.6,4 6.84,6.1 1.35,1.1 2.81,2.3 4.16,3.6 1.01,0.9 1.9,1.7 2.91,2.6 7.64,6.6 15.16,13.3 22.68,20 10.44,9.4 20.87,18.8 31.31,28.2 3.71,3.3 7.41,6.6 11.01,10 9.54,8.8 19.08,17.5 28.51,26.3 2.91,2.7 5.94,5.5 8.86,8.2 2.58,2.4 5.05,4.8 7.63,7.1 10.55,9.9 21.1,19.9 31.54,29.9 1.8,1.7 3.48,3.4 5.28,5.1 5.95,5.7 11.9,11.4 17.84,17.1 3.71,3.6 7.42,7.1 11,10.7 2.47,2.4 4.95,4.8 7.53,7.3 3.14,3.1 6.28,6.2 9.42,9.3 3.37,3.3 6.74,6.5 9.99,9.8 2.59,2.6 5.17,5 7.63,7.6 3.04,2.9 5.96,6 8.98,8.9 4.61,4.6 9.21,9.2 13.7,13.8 10.21,10.1 20.2,20.2 30.08,30.4 19.98,20.3 39.85,40.9 59.49,61.6 l 2.69,2.8 c 9.65,10.2 19.31,20.5 28.96,30.9 2.36,2.5 4.61,4.8 6.85,7.3 15.04,16.2 29.97,32.3 44.78,48.7 1.35,1.5 2.58,2.8 3.93,4.3 2.25,2.4 4.49,5 6.74,7.5 15.15,16.7 30.3,33.5 45.23,50.5 1.68,1.9 3.36,3.8 5.05,5.7 l 2.02,2.4 c 16.61,18.8 33.11,37.7 49.5,56.8 1.57,1.8 3.14,3.6 4.6,5.2 1.8,2.2 3.48,4.2 5.28,6.2 16.83,19.7 33.44,39.3 50.06,59.2 17.06,20.4 34.12,40.8 50.96,61.5 16.83,20.5 33.67,41.3 50.28,62 16.72,20.8 33.22,41.7 49.72,62.7 13.28,16.9 26.45,33.9 39.6,50.8 19.57,25.3 39.11,50.5 58.28,76 48.38,64 96.08,128.5 143.22,193.6 2.13,2.9 4.26,5.9 6.4,8.8 10.55,14.6 21.1,29.3 31.65,44 5.72,8 11.33,15.9 17.06,23.9 12.91,18.1 25.7,36.1 38.5,54.3 4.49,6.1 8.75,12.3 13.02,18.4 9.43,13.4 18.86,26.9 28.17,40.3 9.55,13.5 18.97,27 28.4,40.5 38.39,55.2 76.55,110.6 114.49,166.2 3.7,5.3 7.51,10.9 11.22,16.4 l 1.8,2.5 0.11,0.3 v 0.1 c 3.25,4.7 6.51,9.4 9.77,14.2 15.82,23.3 31.65,46.5 47.47,69.8 18.75,27.6 37.38,55.3 56.01,82.9 78.91,116.7 157.7,233.9 237.09,350.7 14,20.7 28,41.2 42.2,61.9 1.2,1.8 2.3,3.5 3.6,5.2 3.4,5.2 7,10.4 10.5,15.5 11.8,17.2 23.6,34.4 35.4,51.6 9.3,13.5 18.6,27 28,40.6 6,8.7 12,17.5 18.1,26.1 10.1,14.7 20.3,29.3 30.5,44 3.4,4.7 6.7,9.6 10,14.3 1.9,2.8 3.9,5.6 6,8.5 12.1,17.4 24.3,34.8 36.6,52.2 3.3,4.7 6.7,9.4 10.1,14.3 15.6,22.1 31.3,44.1 47,66.2 15.7,22 31.5,44 47.4,65.9 l 1,1.4 c 2.6,3.5 5,7 7.6,10.4 1,1.5 2.1,3.1 3.4,4.7 4.8,6.7 9.6,13.3 14.6,20.1 2.7,3.7 5.3,7.5 8.2,11.2 5.2,7.3 10.6,14.6 15.9,21.9 7.8,10.6 15.7,21.2 23.6,31.8 23.2,31.6 46.8,63 70.6,94.5"
         style="fill:#f99746;fill-opacity:1;fill-rule:nonzero;stroke:none"
         id="path20" />
      <path
         d="m 29844.2,3758.1 c -140.1,-361.1 -297.6,-680.3 -472.7,-937.7 -168.4,-247.3 -353.1,-437.3 -554.7,-552.5 -4.1,-2.3 -8,-4.6 -12,-6.7 l -1145.6,1057 v 6962 c -2047.8,1576.1 -2831.1,5939.5 -3062.3,7619.9 278.6,-10.2 544.4,-34.8 798.1,-73.1 513.9,-77.5 977.8,-210.7 1396.9,-392.1 l 490.2,-244.8 c -903.8,-2684.4 1261.3,-6815.7 1261.3,-6815.7 l 540.8,-2751.1 v -0.3 l 760,-3864.9"
         style="fill:#ed7d2b;fill-opacity:1;fill-rule:nonzero;stroke:none"
         id="path22" />
      <path
         d="m 30742.6,9209.2 c -2.4,-1504 -286.6,-3875.9 -898.4,-5451.1 -140.1,-361.1 -297.6,-680.3 -472.7,-937.7 -212,128.6 -358.7,221.8 -358.7,221.8 l 71.4,4580.8 v 0.3 l -908.7,3005.3 c -1131.4,1907.3 -1436.7,5112.3 -893.4,6561.5 796.2,-386.7 1388.7,-1142 1697.5,-1589.9 l 28.7,-42 4.5,-6.5 c 1002.3,-1482.4 1443,-3483.4 1687,-5459.6 27.3,-221.5 41.8,-503.1 42.7,-827.1 0.1,-18.4 0.1,-37 0.1,-55.8"
         style="fill:#ed7d2b;fill-opacity:1;fill-rule:nonzero;stroke:none"
         id="path24" />
      <path
         d="m 17160.8,5927.3 h -6690.7 l 69.9,582.7 132.1,1083 1309.8,10796 c 0,1.5 1.6,1.5 1.6,1.5 14,7.8 26.4,17.1 40.4,24.9 17.1,10.8 35.7,20.2 52.8,31 9.3,4.7 17.1,9.4 26.4,14 9.4,6.3 18.7,10.9 28,15.6 7.8,4.6 15.5,9.3 23.3,12.4 94.8,52.8 194.2,102.5 296.8,147.6 6.2,3.1 12.4,6.2 18.6,7.8 14,6.2 28,12.4 42,18.6 14,6.2 26.4,12.5 40.4,17.1 4.6,1.6 9.3,3.1 12.4,6.3 10.9,3.1 20.2,7.7 29.5,10.8 14,6.2 28,12.4 42,17.1 12.4,4.7 23.3,9.3 34.2,14 6.2,1.5 10.9,3.1 17.1,6.2 17.1,6.2 32.6,12.4 49.7,17.1 57.5,21.8 118.1,41.9 178.7,62.2 18.6,6.2 35.7,10.8 54.4,17.1 23.3,6.2 45,13.9 68.3,20.1 15.6,4.7 31.1,7.8 45.1,12.5 6.2,1.5 10.9,3.1 17.1,4.6 18.6,4.7 38.8,10.9 59,15.6 20.2,6.2 42,10.8 63.7,15.5 20.2,6.2 42,10.9 63.7,15.6 20.3,4.6 42,9.3 62.2,13.9 1.5,1.6 3.1,1.6 4.7,1.6 20.2,4.7 43.5,9.3 65.2,14 381.4,77.5 805.6,120.2 1281,120.2 249,0 512,-11.7 790.3,-36.3 125.8,-10.9 248.6,-28 368.2,-49.7 l 1370.5,-11635.1 21.7,-192.6 14,-119.7 15.6,-122.7 -24.9,-194.3 -23.3,-203.5 -63.7,-523.7 -7.8,-59"
         style="fill:#c6d5ff;fill-opacity:1;fill-rule:nonzero;stroke:none"
         id="path26" />
      <path
         d="m 9671.15,15793.8 c -428.43,-1268.2 -912.99,-2209.2 -1403.37,-2916.4 -4.04,-5.7 -7.97,-11.4 -11.9,-17.1 -18.74,-26.9 -37.49,-53.5 -56.23,-79.6 C 6989.68,11090.1 5759.5,10794.4 5267.54,10492.4 l -1520.77,-8225.1 -35.02,0.1 c 0,0 -145.58,119.5 -357.16,350.2 -571.98,623.6 -1626.27,2059.7 -1590.92,4144.4 21.22,1246.9 220.67,3440.5 1724.72,4991.9 24.8,25.7 50.06,51.2 75.65,76.3 5.5,5.4 11.79,11.6 18.86,18.4 1.68,1.7 3.48,3.4 5.27,5.1 39.74,38.1 102.59,96.7 185.54,172.2 l 1.23,1.1 c 14.03,12.6 28.29,24.9 42.54,37 8.87,7.8 17.73,15.4 26.71,23 7.08,6.1 14.15,12 21.33,18 4.71,4 9.32,7.9 14.03,11.8 9.2,7.6 18.41,15.3 27.73,22.9 4.38,3.7 8.86,7.4 13.35,10.9 10.78,8.9 21.44,17.6 32.33,26.2 1.8,1.6 3.71,3.1 5.5,4.5 16.28,13 32.66,26 49.16,38.8 13.81,10.9 27.84,21.7 41.87,32.4 2.13,1.7 4.26,3.2 6.39,4.9 12.58,9.7 25.37,19.2 38.17,28.7 11.78,8.9 23.68,17.7 35.58,26.4 3.82,2.9 7.74,5.7 11.67,8.6 15.49,11.3 31.2,22.6 46.92,33.7 11.22,8.2 22.56,16.2 33.89,24.1 13.25,9.3 26.61,18.6 39.97,27.7 9.54,6.6 19.19,13.2 28.84,19.7 13.69,9.2 27.39,18.4 41.08,27.5 11.45,7.7 23.01,15.3 34.57,22.7 4.26,2.9 8.53,5.7 12.8,8.3 11.78,7.8 23.57,15.4 35.47,22.9 13.91,8.9 27.94,17.7 41.98,26.5 l 1.23,0.8 c 13.69,8.5 27.5,17 41.31,25.5 14.25,8.6 28.5,17.4 42.87,25.9 2.25,1.3 4.38,2.6 6.51,3.9 12.24,7.3 24.59,14.6 36.93,21.8 14.48,8.5 29.07,16.9 43.77,25.4 14.37,8.2 28.74,16.4 43.22,24.5 l 1.12,0.6 c 14.81,8.3 29.75,16.6 44.67,24.8 14.37,8 28.74,15.7 43.22,23.6 2.13,1.1 4.26,2.2 6.28,3.4 13.7,7.2 27.5,14.5 41.31,21.8 13.8,7.3 27.61,14.5 41.53,21.7 11.67,5.9 23.23,11.9 34.9,17.7 51.41,26.2 103.6,51.7 156.81,76.5 92.93,43.6 188.45,85.4 286.67,125.3 14.02,5.8 28.16,11.5 42.31,17.1 14.14,5.6 28.29,11.2 42.54,16.7 14.25,5.6 28.62,11.1 42.99,16.6 23.34,9 46.92,17.8 70.6,26.4 15.15,5.6 30.31,11.2 45.68,16.6 14.37,5.3 28.73,10.4 43.21,15.4 17.18,6.1 34.35,12 51.63,18 l 1.69,0.5 c 1.46,0.6 3.03,1 4.49,1.5 14.48,5 29.07,10 43.66,14.8 21.1,7 42.21,13.9 63.53,20.8 18.74,6 37.6,12.1 56.57,17.9 1.01,0.4 2.02,0.7 3.03,1 16.39,5.1 32.78,10.1 49.28,15.2 8.19,2.5 16.38,4.9 24.58,7.4 16.38,4.9 32.88,9.8 49.49,14.6 5.17,1.6 10.22,3 15.27,4.5 19.64,5.7 39.51,11.3 59.38,16.8 20.09,5.6 40.18,11.2 60.49,16.6 7.41,2 14.82,4.1 22.23,6 15.6,4.2 31.43,8.4 47.25,12.4 3.15,0.9 6.17,1.7 9.32,2.5 22.44,5.7 44.9,11.5 67.57,17.1 19.75,4.9 39.62,9.7 59.6,14.6 5.61,1.3 11.22,2.6 16.83,3.9 21.56,5.1 43.22,10.2 64.99,15.1 23.35,5.4 46.81,10.6 70.38,15.8 l 2.47,0.5 c 23.79,5.2 47.59,10.3 71.61,15.3 25.14,5.3 50.17,10.6 74.98,16.3 12.35,2.8 24.69,5.6 36.93,8.5 12.34,2.8 24.58,5.8 36.7,8.7 11,2.7 22.11,5.4 33,8.2 11,2.7 22,5.5 32.88,8.5 10.78,2.6 21.56,5.6 32.22,8.4 10.88,2.9 21.77,5.8 32.66,8.8 9.88,2.7 19.64,5.5 29.41,8.2 22.22,6.3 44.33,12.8 66.22,19.4 10.55,3.2 20.99,6.3 31.43,9.6 20.54,6.3 40.86,12.8 61.06,19.4 l 1.91,0.6 c 20.31,6.6 40.52,13.4 60.5,20.3 20.31,6.9 40.4,14 60.5,21.3 19.97,7.2 39.73,14.6 59.48,22 2.03,0.8 4.04,1.6 5.95,2.2 29.07,11.2 57.7,22.5 86.09,34.1 l 0.67,0.3 c 8.76,3.5 17.4,7.1 26.05,10.7 11.56,4.8 23.12,9.6 34.68,14.6 16.72,7.1 33.34,14.4 49.84,21.7 10.32,4.6 20.64,9.2 30.97,13.9 28.96,13.2 57.47,26.7 85.76,40.3 16.5,7.9 32.77,16 48.93,24.2 15.49,7.6 30.98,15.5 46.25,23.4 1.23,0.7 2.58,1.4 3.81,2.1 16.28,8.4 32.44,16.9 48.49,25.7 2.02,1 4.04,2.1 6.18,3.2 12.79,7 25.59,13.9 38.27,21 6.4,3.6 12.8,7.2 19.19,10.8 9.65,5.2 19.2,10.8 28.62,16.3 7.41,4.1 14.71,8.4 22.12,12.6 15.6,9.1 30.98,18.2 46.35,27.5 14.48,8.7 28.85,17.4 43.11,26.3 16.38,10.1 32.66,20.3 48.82,30.8 15.6,9.8 30.98,19.9 46.36,30.1 l 1.79,1.2 c 11.45,7.5 22.9,15.1 34.24,23 6.73,4.4 13.46,9 20.2,13.7 8.42,5.6 16.72,11.3 25.03,17.1 8.31,5.7 16.5,11.5 24.69,17.3 8.42,6 16.84,11.9 25.26,18.1 8.42,6 16.72,11.9 25.03,18.1 6.39,4.6 12.68,9.2 18.97,13.9 13.58,10 27.05,20 40.4,30.3 2.47,1.7 4.83,3.5 7.19,5.4 13.35,10.1 26.6,20.3 39.84,30.6 19.2,14.8 38.06,30 56.91,45.1 14.14,11.4 28.06,22.9 41.98,34.4 2.47,2 4.94,4.1 7.41,6.3 10.32,8.4 20.65,17 30.86,25.8 2.25,1.9 4.49,3.7 6.63,5.7 6.06,5.1 12.01,10.1 17.96,15.4 2.91,2.5 5.83,4.9 8.75,7.5 4.94,4.3 9.99,8.5 14.93,12.9 2.24,2 4.6,4 6.84,6.1 1.35,1.1 2.81,2.3 4.16,3.6 1.01,0.9 1.9,1.7 2.91,2.6 7.64,6.6 15.16,13.3 22.68,20 10.44,9.4 20.87,18.8 31.31,28.2 3.71,3.3 7.41,6.6 11.01,10 9.54,8.8 19.08,17.5 28.51,26.3 2.91,2.7 5.94,5.5 8.86,8.2 2.58,2.4 5.05,4.8 7.63,7.1 10.55,9.9 21.1,19.9 31.54,29.9 1.8,1.7 3.48,3.4 5.28,5.1 5.95,5.7 11.9,11.4 17.84,17.1 3.71,3.6 7.42,7.1 11,10.7 2.47,2.4 4.95,4.8 7.53,7.3 3.14,3.1 6.28,6.2 9.42,9.3 3.37,3.3 6.74,6.5 9.99,9.8 2.59,2.6 5.17,5 7.63,7.6 3.04,2.9 5.96,6 8.98,8.9 4.61,4.6 9.21,9.2 13.7,13.8 10.21,10.1 20.2,20.2 30.08,30.4 19.98,20.3 39.85,40.9 59.49,61.6 l 2.69,2.8 c 9.65,10.2 19.31,20.5 28.96,30.9 2.36,2.5 4.61,4.8 6.85,7.3 15.04,16.2 29.97,32.3 44.78,48.7 1.35,1.5 2.58,2.8 3.93,4.3 2.25,2.4 4.49,5 6.74,7.5 15.15,16.7 30.3,33.5 45.23,50.5 1.68,1.9 3.36,3.8 5.05,5.7 l 2.02,2.4 c 16.61,18.8 33.11,37.7 49.5,56.8 1.57,1.8 3.14,3.6 4.6,5.2 1.8,2.2 3.48,4.2 5.28,6.2 16.83,19.7 33.44,39.3 50.06,59.2 17.06,20.4 34.12,40.8 50.96,61.5 16.83,20.5 33.67,41.3 50.28,62 16.72,20.8 33.22,41.7 49.72,62.7 13.28,16.9 26.45,33.9 39.6,50.8 19.57,25.3 39.11,50.5 58.28,76 48.38,64 96.08,128.5 143.22,193.6 2.13,2.9 4.26,5.9 6.4,8.8 10.55,14.6 21.1,29.3 31.65,44 5.72,8 11.33,15.9 17.06,23.9 12.91,18.1 25.7,36.1 38.5,54.3 4.49,6.1 8.75,12.3 13.02,18.4 9.43,13.4 18.86,26.9 28.17,40.3 9.55,13.5 18.97,27 28.4,40.5 38.39,55.2 76.55,110.6 114.49,166.2 3.7,5.3 7.51,10.9 11.22,16.4 l 1.8,2.5"
         style="fill:#ed7d2b;fill-opacity:1;fill-rule:nonzero;stroke:none"
         id="path28" />
      <path
         d="m 3488.39,7146.4 c 113.7,195.2 1129.08,3329 1196.41,3228.1 67.35,-100.9 -505.06,-3213.9 -505.06,-3213.9 l -691.35,-14.2"
         style="fill:#f99746;fill-opacity:1;fill-rule:nonzero;stroke:none"
         id="path30" />
      <path
         d="m 24086.2,5927.3 h -6925.4 234.7 l -32.7,282.8 -35.7,299.9 -7.8,63.7 -38.8,332.5 v 1.6 l 26.4,222.2 1.6,10.8 54.3,453.7 93.3,766.1 76.1,624.6 428.9,3528.7 32.6,272 598.2,4925.6 c 497.2,-284 979.2,-501.3 1516.4,-501.3 124.2,0 251.4,11.6 382.4,36.7 76.1,14 152.3,32.6 229.9,55.9 21.8,6.3 43.6,12.5 63.7,18.7 21.8,6.2 42,12.4 63.7,18.6 85.5,26.5 171,49.8 256.4,74.6 38.9,10.9 77.7,21.8 116.6,31.1 4.6,1.5 7.7,3.1 10.9,3.1 20.1,6.2 38.8,10.9 57.4,15.5 20.3,6.3 40.4,10.9 59.1,15.6 68.3,18.6 135.2,35.7 202,51.3 23.3,6.2 48.1,12.4 73,18.6 122.8,29.5 245.5,57.5 366.7,83.9 20.2,4.7 42,9.3 62.2,14 24.8,4.6 48.1,9.3 71.5,15.5 21.7,3.1 43.5,7.8 65.2,12.5 20.2,4.6 38.8,7.7 59,12.4 10.9,1.5 21.8,4.7 32.7,6.2 17.1,3.1 34.2,6.2 51.3,9.3 13.9,3.1 26.4,6.2 40.4,7.8 15.5,3.1 31,6.2 46.6,9.3 38.8,6.2 76.1,14 113.4,20.2 12.4,1.6 24.9,4.7 37.3,6.2 37.3,6.2 74.6,12.5 110.3,18.7 4.7,0 7.8,1.5 12.4,1.5 L 24017.8,6510 l 1.6,-9.3 66.8,-573.4"
         style="fill:#c6d5ff;fill-opacity:1;fill-rule:nonzero;stroke:none"
         id="path32" />
      <path
         d="m 17395.5,5927.3 h -234.7 l 7.8,59 63.7,523.7 23.3,203.5 24.9,194.3 v -1.6 l 38.8,-332.5 7.8,-63.7 35.7,-299.9 32.7,-282.8"
         style="fill:#d7e2ff;fill-opacity:1;fill-rule:nonzero;stroke:none"
         id="path34" />
      <path
         d="m 17717.1,12739.1 c 0,0 -105.1,79.9 -152.4,94.9 -47.3,15 -138.9,85.9 -150.8,56.6 -11.9,-29.2 61.5,-74.2 57.6,-107.5 -3.8,-33.4 -233.5,-87 -232.1,-122.3 1.4,-35.3 54,-120.7 141.6,-110.9 87.7,9.8 309.8,62.5 355.5,39.8 45.6,-22.8 -19.4,149.4 -19.4,149.4"
         style="fill:#ffb27d;fill-opacity:1;fill-rule:nonzero;stroke:none"
         id="path36" />
      <path
         d="m 20068.7,13231.5 c -129.7,-174.2 -281.6,-311.8 -437.5,-420.3 -495.9,-344.9 -1033.8,-396.3 -1033.8,-396.3 -214.7,-8.6 -524.9,84.3 -758.9,122 h -0.1 c -102,16.4 -146.9,28.7 -146.9,28.7 0,0 -38.9,36 -27.7,134.5 2.5,21.4 30.6,56 30.6,56 0,0 830.8,75.6 973,141.5 224.3,193.3 422.4,444.1 551.5,640.1 109,165.6 174.5,267.8 207.1,280.2 288.6,110.3 1045.3,-45.5 642.7,-586.4"
         style="fill:#22407a;fill-opacity:1;fill-rule:nonzero;stroke:none"
         id="path38" />
      <path
         d="m 19114.2,6480.4 h 949.2 c 68,46.1 -18.4,497 -18.4,497 0,0 -259,98.3 -303.8,-101.6 -44.8,-199.7 -329.9,-263.3 -480.8,-287.6 -103.2,-16.8 -135.8,-73.5 -146.2,-107.8"
         style="fill:#233862;fill-opacity:1;fill-rule:nonzero;stroke:none"
         id="path40" />
      <path
         d="m 20521.9,6480.4 h 949.1 c 68,46.1 -18.3,497 -18.3,497 0,0 -259.1,98.3 -303.8,-101.6 -44.9,-199.7 -330,-263.3 -480.8,-287.6 -103.3,-16.8 -135.9,-73.5 -146.2,-107.8"
         style="fill:#233862;fill-opacity:1;fill-rule:nonzero;stroke:none"
         id="path42" />
      <path
         d="m 19369.6,11080.1 c 0,0 42.7,-532.3 92.8,-1172.1 68.1,-869.1 252,-3024 252,-3024 0,0 120.5,-102.8 387.4,-46.6 0,0 227.2,743.4 295.1,1591.9 1.1,13.9 2.1,27.9 3.2,41.9 63.2,863.8 161.5,2682.6 161.5,2682.6 l -1192,-73.7"
         style="fill:#233862;fill-opacity:1;fill-rule:nonzero;stroke:none"
         id="path44" />
      <path
         d="m 19627.4,11264 c 0,0 677.8,-1687.2 894.5,-2326.7 154.3,-455.5 589.6,-2053.6 589.6,-2053.6 0,0 189.3,-57.6 348.4,53.7 0,0 161.9,1632.7 -165.2,2093.1 -173.5,244.3 -43.1,2539 -746.8,2558.7 -703.7,19.6 -920.5,-325.2 -920.5,-325.2"
         style="fill:#2b478b;fill-opacity:1;fill-rule:nonzero;stroke:none"
         id="path46" />
      <path
         d="m 19930.2,13751.2 c 103.4,-54.5 204.4,-58 292,-39.4 80.1,16.9 148.8,52.2 197.8,83.5 50.3,32.2 79.8,60.1 79.8,60.1 0,0 -3.5,5.1 -9.4,15 -30.5,52.3 -123.2,240.3 -82,542.4 0.6,3.9 -29.4,-1.7 -74.6,-12.4 -134.5,-31.8 -404.8,-108.5 -416.8,-111.9 h -0.5 c 0,0 -3.3,-63.5 -14.4,-177.4 -0.9,-10 -1.9,-20.5 -3,-31.4 -1.4,-13.4 -2.8,-27.5 -4.5,-42.1 -12.5,-118.4 35.6,-286.4 35.6,-286.4"
         style="fill:#ffb27d;fill-opacity:1;fill-rule:nonzero;stroke:none"
         id="path48" />
      <path
         d="m 19902.1,14111.1 c 200.8,-46 500.4,250.4 500.4,250.4 -21.9,16.3 -44.9,29.2 -68.7,38.9 -134.5,-31.8 -404.8,-108.5 -416.8,-111.9 h -0.5 c 0,0 -3.3,-63.5 -14.4,-177.4"
         style="fill:#ed975d;fill-opacity:1;fill-rule:nonzero;stroke:none"
         id="path50" />
      <path
         d="m 19833.9,14304.5 c 0,0 82.5,-29.6 187.8,-43.8 153.9,-20.7 356.3,-8.5 419.9,177.7 107.1,313.5 243.9,501.5 -71.3,629.5 -168.7,68.5 -276.6,72.1 -349.9,46 -63.7,-22.6 -101.2,-67.7 -129.7,-112.3 -61.2,-95.9 -184.3,-642.2 -56.8,-697.1"
         style="fill:#ffb27d;fill-opacity:1;fill-rule:nonzero;stroke:none"
         id="path52" />
      <path
         d="m 19642.7,14976.8 c 182.4,-131.1 434.9,-2.2 513.3,-37.1 78.4,-34.8 92.5,-166.3 93.9,-208 1.4,-41.8 6.9,-77 113.4,-52 17.4,4 30,2.8 38.6,-2.4 44.2,-26.1 -12.3,-153.1 -29.3,-180.6 0,0 -24.5,-91 29.9,-135.2 6.6,-5.3 113.3,-52 370.6,341.8 40.5,61.8 79.1,201 16.6,335.1 -62.4,134 -323.1,263.6 -544.3,332.3 -82.8,25.7 -144.3,24.8 -192.3,7.2 -80.2,-29.3 -122.9,-105.1 -165.4,-181.2 -71.1,-127.9 -245,-219.9 -245,-219.9"
         style="fill:#163560;fill-opacity:1;fill-rule:nonzero;stroke:none"
         id="path54" />
      <path
         d="m 21003.9,11336.4 c 14.2,-109.1 -91.5,-168.3 -187.2,-190.4 0,0 -88.3,-19 -199.9,-37.9 -109.2,-18.4 -241,-36.4 -334,-35.8 -475.9,3.8 -874.1,143.9 -874.1,143.9 -89.6,0 -130.4,138.6 -145.1,331.9 -9.9,131 -7.7,287 -0.7,442.3 2.3,50.3 5.3,100.6 8.3,149.9 6.3,97.7 13.6,191.6 20.3,274.5 6.2,77.9 11.9,146.2 15.3,199.1 0,0.1 70.2,441.1 75.2,767 3.5,233.8 51.9,376.2 84.8,410.8 95.2,100.8 371.2,164.6 426.5,173.4 4.2,0.5 6.4,0.9 6.4,0.9 227,-127.4 532.7,44.8 532.7,44.8 6.9,-1.2 13.6,-2.8 20.4,-4.3 6.4,1.3 41.3,-0.8 90.3,-7.7 120.1,-17.4 326.4,-63.1 413.1,-153 43.7,-45.2 52.7,-186.8 48.4,-336.2 -6.1,-208.2 -37.9,-431.5 -37.9,-431.5 6.8,-167.8 8.8,-366.9 9.8,-571.7 1.2,-333.3 -0.5,-681.6 10,-934.3 3.8,-93.5 9.4,-174 17.4,-235.7"
         style="fill:#e9f3fe;fill-opacity:1;fill-rule:nonzero;stroke:none"
         id="path56" />
      <path
         d="m 21654.1,11014.4 c 0,0 163.7,-257.1 172.9,-355.5 6.2,-66.8 -8.8,-330.5 -42.2,-331.4 -47.1,-1.3 -94.2,162.7 -112.5,205.3 -18.2,42.5 -39.5,76 -57.7,76 -18.3,0 39.5,-164.2 0,-146 -39.6,18.3 -106.5,170.2 -112.5,206.7 -6.1,36.6 35.6,153.5 15.3,199.5 -20.4,46 136.7,145.4 136.7,145.4"
         style="fill:#ffb27d;fill-opacity:1;fill-rule:nonzero;stroke:none"
         id="path58" />
      <path
         d="m 19712.4,11601.5 c 6.5,-78.3 36.5,-151.5 84.1,-205.3 l 75,-84.6 c 18.8,-21.3 48,-18.7 63.5,5.5 l 90.4,141.8 c 24.3,38.1 35.4,86.4 31.1,135.1 -9.6,108.2 -27.6,316.9 -42.4,518.2 -12,163.1 -21.9,321.6 -23.4,417.9 -5,307.6 35.3,1287.8 35.3,1287.8 l -60.1,-3.1 c 0,0 -145.7,-379 -218.9,-896.1 -18.1,-127.3 -31.7,-262.8 -37.7,-403.3 0,0 -26,-559.8 3.1,-913.9"
         style="fill:#22407a;fill-opacity:1;fill-rule:nonzero;stroke:none"
         id="path60" />
      <path
         d="m 20495.1,13994.9 c 0.4,26.1 -102.8,58.4 -102.8,58.4 0,0 -141.3,-196 -374.1,-199.4 0,0 66.3,-129.1 144.5,-162.5 0,0 329.2,113.5 332.4,303.5"
         style="fill:#d9e9f9;fill-opacity:1;fill-rule:nonzero;stroke:none"
         id="path62" />
      <path
         d="m 20018.2,13858.5 c 0,0 -123.4,73.1 -123.8,152.4 0,0 -71.1,-11.4 -105.8,-50 0,0 -37.9,-114.5 0.9,-193.4 0,0 177.6,27 228.7,91"
         style="fill:#d9e9f9;fill-opacity:1;fill-rule:nonzero;stroke:none"
         id="path64" />
      <path
         d="m 20101.9,13870.3 -167.3,40.1 c 0,0 -21.8,-1.9 -21.2,-29.2 0.6,-27.2 47.1,-106.8 67.7,-113.2 20.6,-6.4 160.4,47.2 120.8,102.3"
         style="fill:#233862;fill-opacity:1;fill-rule:nonzero;stroke:none"
         id="path66" />
      <path
         d="m 20495,14004.6 c 1.3,26.1 -82.2,79.8 -82.2,79.8 0,0 -161.8,-189 -394.6,-192.4 0,0 66.3,-129.2 144.5,-162.6 0,0 324.6,120.4 332.3,275.2"
         style="fill:#e9f3fe;fill-opacity:1;fill-rule:nonzero;stroke:none"
         id="path68" />
      <path
         d="m 20018.2,13892 c 0,0 -124.8,66.1 -125.2,145.4 0,0 -75.3,-33.1 -110.1,-71.8 0,0 -32.2,-85.7 6.6,-164.7 0,0 177.6,27.1 228.7,91.1"
         style="fill:#e9f3fe;fill-opacity:1;fill-rule:nonzero;stroke:none"
         id="path70" />
      <path
         d="m 21174.8,10918.8 c 0,0 -188.9,-121.3 -524.8,-134.2 -131.7,-5 -524.7,29.2 -524.7,29.2 l 6.6,1014 290.8,2079.1 148.4,6.6 c -9.7,29.5 -19.2,58.5 -28,85.3 120.1,-17.4 326.4,-63.1 413.1,-153 37.7,-39 49.5,-149.7 49.3,-275.3 l 80.2,-1256.5 54.8,-858.3 34.3,-536.9"
         style="fill:#22407a;fill-opacity:1;fill-rule:nonzero;stroke:none"
         id="path72" />
      <path
         d="m 19627.4,11963.9 v -1070.8 l -408.5,56.9 c 0,0 -25.7,1640 -26.3,2030.8 -0.7,390.8 233.4,837.1 233.4,837.1 0,0 112.9,76.9 315.1,146.1 l -113.7,-2000.1"
         style="fill:#22407a;fill-opacity:1;fill-rule:nonzero;stroke:none"
         id="path74" />
      <path
         d="m 21145.3,11379.8 c 0,0 -462.5,1333.7 -465.6,1401.9 l 298.9,-121.4 107.1,-346.3 59.6,-934.2"
         style="fill:#233862;fill-opacity:1;fill-rule:nonzero;stroke:none"
         id="path76" />
      <path
         d="m 19817,13991.4 c 0,0 -143.7,-625.8 -155,-1419.7 -2.7,-182.5 -27.6,-553.1 -34.6,-660.8 0,0 -186.9,896.8 -190.7,1156.5 0,0 120.7,88.4 120.7,118.2 0,29.8 -131.4,106.7 -131.4,106.7 0,0 99,508.3 155.1,572.1 68.2,77.8 235.9,127 235.9,127"
         style="fill:#233862;fill-opacity:1;fill-rule:nonzero;stroke:none"
         id="path78" />
      <path
         d="m 20912.4,13881.6 c 0,0 233.9,-104.5 419.4,-878.1 139.8,-583.2 407.4,-2072.4 407.4,-2072.4 l -226.4,-93.1 c 0,0 -829,1903.3 -947.6,2170.9 -118.5,267.7 347.2,872.7 347.2,872.7"
         style="fill:#22407a;fill-opacity:1;fill-rule:nonzero;stroke:none"
         id="path80" />
      <path
         d="m 20456.5,14053.3 c 0,0 -386,-1616.6 -324.6,-2225.6 0,0 141.9,650.8 483.4,1183.8 0,0 -124.6,109.6 -117.8,150 0,0 92.5,27.4 182.2,9 0,0 -29.3,732.9 -68.4,816.7 -23.3,50.2 -154.8,66.1 -154.8,66.1"
         style="fill:#233862;fill-opacity:1;fill-rule:nonzero;stroke:none"
         id="path82" />
      <path
         d="m 19926.5,14474.1 c -5.3,-25.6 -24.4,-43.3 -42.7,-39.5 -18.3,3.8 -28.8,27.6 -23.5,53.3 5.3,25.6 24.4,43.3 42.7,39.5 18.3,-3.8 28.8,-27.6 23.5,-53.3"
         style="fill:#ffffff;fill-opacity:1;fill-rule:nonzero;stroke:none"
         id="path84" />
      <path
         d="m 13717.8,14077.9 c 0,0 570.1,4.8 707.3,-187.6 137.2,-192.4 319.7,-1413.4 281.1,-1572.1 -89.6,-367.8 -450.8,142.5 -613.8,353.5 -163,211 -374.6,1406.2 -374.6,1406.2"
         style="fill:#22407a;fill-opacity:1;fill-rule:nonzero;stroke:none"
         id="path86" />
      <path
         d="m 14692.8,12652.3 153.4,-1230.3 h -439.4 l -119.8,959.7 405.8,270.6"
         style="fill:#22407a;fill-opacity:1;fill-rule:nonzero;stroke:none"
         id="path88" />
      <path
         d="m 13335.7,6472.6 c 0,0 -21,164 -69.8,261.5 -48.7,97.5 -358.9,35.4 -358.9,35.4 0,0 -62.1,-53.2 -75.4,-301.3 l 504.1,4.4"
         style="fill:#233862;fill-opacity:1;fill-rule:nonzero;stroke:none"
         id="path90" />
      <path
         d="m 14392.6,6474.8 c -72.9,44.5 -31.4,376.4 -31.4,376.4 0,0 339.6,271.7 386.3,63.7 46.7,-208 322.6,-301.4 479.7,-326.9 108.5,-17.6 142,-77.6 152.4,-113.2 h -987"
         style="fill:#233862;fill-opacity:1;fill-rule:nonzero;stroke:none"
         id="path92" />
      <path
         d="m 13689.1,8888.8 c 13.8,-76.2 22.6,-138.7 24.9,-183.5 31.6,-615.9 518.4,-2024 605.5,-2056.8 134.7,-50.9 346.9,57.2 457.9,92.6 46,14.7 77,61.1 66.8,108.1 -241.1,1108.4 -329.7,2704.3 -361.9,3649.2 -16.3,476 -98,804.7 -98,804.7 0,0 -1187.4,316.8 -1194.4,-83.9 -6.3,-354.6 393.3,-1745.4 499.2,-2330.4"
         style="fill:#233862;fill-opacity:1;fill-rule:nonzero;stroke:none"
         id="path94" />
      <path
         d="m 13689.1,8888.8 793.2,1609.6 c -16.3,476 -98,804.7 -98,804.7 0,0 -1187.4,316.8 -1194.4,-83.9 -6.3,-354.6 393.3,-1745.4 499.2,-2330.4"
         style="fill:#233862;fill-opacity:1;fill-rule:nonzero;stroke:none"
         id="path96" />
      <path
         d="m 13953.3,11217.8 -627.7,-4549.4 c 0,0 -275.7,-66.4 -490.1,-13.3 0,0 -183.8,2419.6 -168.4,3004.5 15.3,585 -131.9,1565.2 33.6,1673.3 165.4,108.1 1252.6,-115.1 1252.6,-115.1"
         style="fill:#233862;fill-opacity:1;fill-rule:nonzero;stroke:none"
         id="path98" />
      <path
         d="m 12656.6,12385.8 -78.3,-1092.2 c -3,-41.1 23.3,-78.5 62.9,-90 87.5,-25.4 188.5,-43.1 383.2,-83.4 182.8,-38 428.9,-71.7 731.2,-73.5 480.8,-3.1 662.8,162.6 662.8,162.6 20.7,-0.3 -10.9,100.3 -39.4,578.8 -9.7,162 -19,367.5 -25.7,627.1 -6.1,233.6 -10.2,511.2 -10.6,840.5 -0.5,396.1 -613.6,822.2 -624.9,822.2 l -0.1,-0.2 c 0,-57 -89.9,-162.3 -228.4,-171.3 -164.3,-10.8 -369.7,107.8 -369.7,202.5 0,0.1 -28.6,-28 -39.6,-46.4 -64.7,-109.3 -268.9,-539.1 -359.1,-973 -13.5,-64.3 -23.8,-132.2 -32.1,-203.6 -0.1,-1.1 -0.2,-2.1 -0.3,-3.2 -1.6,-13.1 -3,-26.2 -4.3,-39.4 -0.3,-2.3 -0.5,-4.7 -0.7,-7 -1.2,-12 -2.5,-24.2 -3.5,-36.4 -0.4,-3.4 2.4,-9.6 -0.9,-10.5 -33,-8.1 -123.2,-309.6 -18.8,-306.9 31.8,0.9 -2.5,-64 -3.7,-96.7 l -0.2,-2.5 0.2,2.5"
         style="fill:#e9f3fe;fill-opacity:1;fill-rule:nonzero;stroke:none"
         id="path100" />
      <path
         d="m 13723.6,14164.9 -0.3,-58.9 c 0,0 16,-184.3 -210.9,-211.2 -227,-27 -398.9,71.8 -392.8,214.1 20.5,110.1 42.9,185.7 44.4,276.8 0.6,33.9 -1.7,69.8 -8,110.4 l 439.8,8.8 129.5,-21.2 -1.7,-318.8"
         style="fill:#ffb27d;fill-opacity:1;fill-rule:nonzero;stroke:none"
         id="path102" />
      <path
         d="m 13390.1,11934.5 6.6,-993 -878.3,102.8 62.9,2391.6 443.3,136.5 199.1,-547.5 166.4,-1090.4"
         style="fill:#22407a;fill-opacity:1;fill-rule:nonzero;stroke:none"
         id="path104" />
      <path
         d="m 13725.3,14483.7 -1.7,-228 c -46.7,-21.7 -132.4,-23.3 -199,-11.3 -199,35.6 -294,103.5 -362.3,211.1 0.5,33.9 0,0 -6.3,40.6 l 439.8,8.8 129.5,-21.2"
         style="fill:#e2915a;fill-opacity:1;fill-rule:nonzero;stroke:none"
         id="path106" />
      <path
         d="m 13122.3,14566.9 c 51,-274.7 405.3,-265.6 558.5,-248.4 43.1,4.8 70.2,10.3 70.2,10.3 48.6,13 75.7,89.5 88.3,189.8 25,198.4 -6.6,489.6 -40.1,564.1 -50.5,112.1 -145.5,233.3 -502.3,145.8 -356.9,-87.5 -240.1,-309.8 -174.6,-661.6"
         style="fill:#ffb27d;fill-opacity:1;fill-rule:nonzero;stroke:none"
         id="path108" />
      <path
         d="m 13908.7,15344.1 c 0,0 -157.1,12.1 -342.3,92.6 -150.4,65.4 -340.1,-6.6 -401.7,-39 1.7,9.9 5.6,23.4 15,37 0,0 -27.6,-19.6 -31.7,-47 -2.8,-2.1 -4.1,-3.5 -3.4,-4 0,0 -31.3,5.7 -51.5,-3.4 0,0 14.1,2.1 19.2,-7 0.5,-1 1.3,-1.8 2.2,-2.5 -234.5,-113.3 -256.2,-484 -180.7,-569.8 90.8,-103.2 211.2,-313.9 211.2,-313.9 0,0 28.2,33.2 11.7,124 -16.5,90.8 61.9,90.8 161,132.1 99,41.3 16.5,156.9 103.2,227 86.7,70.2 404.5,28.9 400.4,82.6 118,43 87.4,279.2 87.4,291.3"
         style="fill:#233862;fill-opacity:1;fill-rule:nonzero;stroke:none"
         id="path110" />
      <path
         d="m 13047.9,14123.3 c -0.5,29.3 115.2,65.4 115.2,65.4 0,0 158.5,-219.7 419.6,-223.5 0,0 -74.4,-144.8 -162.1,-182.3 0,0 -369.2,127.3 -372.7,340.4"
         style="fill:#d9e9f9;fill-opacity:1;fill-rule:nonzero;stroke:none"
         id="path112" />
      <path
         d="m 13582.7,13970.3 c 0,0 138.4,82 138.8,170.9 0,0 79.7,-12.8 118.7,-56.1 0,0 42.5,-128.4 -1,-216.9 0,0 -199.2,30.4 -256.5,102.1"
         style="fill:#d9e9f9;fill-opacity:1;fill-rule:nonzero;stroke:none"
         id="path114" />
      <path
         d="m 13488.8,13983.5 187.6,45 c 0,0 24.5,-2.2 23.8,-32.7 -0.6,-30.6 -52.8,-119.9 -75.9,-127 -23.1,-7.1 -179.9,52.9 -135.5,114.7"
         style="fill:#ba4c43;fill-opacity:1;fill-rule:nonzero;stroke:none"
         id="path116" />
      <path
         d="m 13047.9,14134.2 c -1.4,29.2 92.3,89.5 92.3,89.5 0,0 181.4,-212 442.5,-215.8 0,0 -74.4,-144.9 -162.1,-182.4 0,0 -364.1,135.1 -372.7,308.7"
         style="fill:#e9f3fe;fill-opacity:1;fill-rule:nonzero;stroke:none"
         id="path118" />
      <path
         d="m 13582.7,14007.9 c 0,0 139.9,74.1 140.4,163 0,0 84.5,-37.1 123.5,-80.5 0,0 36.1,-96.1 -7.4,-184.6 0,0 -199.2,30.3 -256.5,102.1"
         style="fill:#e9f3fe;fill-opacity:1;fill-rule:nonzero;stroke:none"
         id="path120" />
      <path
         d="m 13925.6,11439.1 c -7.2,-87.8 -40.8,-169.9 -94.3,-230.3 l -84.1,-94.9 c -21.1,-23.8 -53.9,-20.9 -71.1,6.2 l -101.5,159.1 c -27.2,42.7 -39.6,96.9 -34.9,151.4 10.8,121.5 31,355.5 47.6,581.2 13.4,183 24.5,360.7 26.3,468.7 5.5,345 -39.7,1444.3 -39.7,1444.3 l 67.5,-3.5 c 0,0 163.4,-425 245.5,-1004.9 20.3,-142.8 35.5,-294.8 42.3,-452.4 0,0 29.1,-627.8 -3.6,-1024.9"
         style="fill:#c65447;fill-opacity:1;fill-rule:nonzero;stroke:none"
         id="path122" />
      <path
         d="m 14224.1,12034.6 62.9,-1220.7 h 334.2 l -198.5,2706.9 -573.1,427.6 203.7,-861.4 170.8,-1052.4"
         style="fill:#22407a;fill-opacity:1;fill-rule:nonzero;stroke:none"
         id="path124" />
      <path
         d="m 13808.9,14119.1 c 0,0 223.1,-983.8 339.9,-1646.7 31.7,-179.7 68.3,-330.1 75.3,-437.8 0,0 -38.7,900.9 -34.9,1160.5 0,0 -160.3,84.9 -160.3,114.7 0,29.8 171,110.3 171,110.3 0,0 -108.3,554.8 -167.4,615.9 -59.1,61.1 -223.6,83.1 -223.6,83.1"
         style="fill:#233862;fill-opacity:1;fill-rule:nonzero;stroke:none"
         id="path126" />
      <path
         d="m 12683.5,12836.3 c 0,0 142.3,-482.6 545.1,-612.7 l -818.3,93.6 c 0,0 -34.2,481.6 0,489.2 34.1,7.6 273.2,29.9 273.2,29.9"
         style="fill:#233862;fill-opacity:1;fill-rule:nonzero;stroke:none"
         id="path128" />
      <path
         d="m 13030.3,14077.9 c 0,0 -407.7,31 -574.1,-141.4 -226,-233.9 -480.8,-1635.5 -382.5,-1909.6 60.2,-167.9 785.4,-51.1 1189.4,-62.6 v 268.5 c 0,0 -641.8,148.3 -641.8,344.9 0,131.7 409,1500.2 409,1500.2"
         style="fill:#22407a;fill-opacity:1;fill-rule:nonzero;stroke:none"
         id="path130" />
      <path
         d="m 13065.5,14160 c 0,0 386,-1616.6 324.6,-2225.5 0,0 -142,650.7 -483.4,1183.8 0,0 124.6,109.6 117.8,150 0,0 -92.5,27.4 -182.2,9 0,0 9.9,696.8 65.8,770.4 56,73.6 157.4,112.3 157.4,112.3"
         style="fill:#233862;fill-opacity:1;fill-rule:nonzero;stroke:none"
         id="path132" />
      <path
         d="m 13263.1,12178.7 c 0,0 279.9,58.3 322.9,44.9 161.2,-50.5 263.6,-189.8 263.6,-219.5 0,-29.7 -586.5,0 -586.5,0 v 174.6"
         style="fill:#ffb27d;fill-opacity:1;fill-rule:nonzero;stroke:none"
         id="path134" />
      <path
         d="m 21666.7,6480.4 h -2965.1 v 4190.5 h 2965.1 V 6480.4"
         style="fill:#f99746;fill-opacity:1;fill-rule:nonzero;stroke:none"
         id="path136" />
      <path
         d="m 21922.2,10558.6 h -3476 v 1468.3 h 3476 v -1468.3"
         style="fill:#f99746;fill-opacity:1;fill-rule:nonzero;stroke:none"
         id="path138" />
      <path
         d="m 18446.2,10558.6 255.4,-368.2 h 2965.1 l 255.5,368.2 h -3476"
         style="fill:#ed7d2b;fill-opacity:1;fill-rule:nonzero;stroke:none"
         id="path140" />
      <path
         d="m 18553.1,6480.4 83.4,260.6 h 3094.6 l 68.3,-260.6 h -3246.3"
         style="fill:#ed7d2b;fill-opacity:1;fill-rule:nonzero;stroke:none"
         id="path142" />
      <path
         d="m 18951.9,12026.9 h -250.3 c 0,69.1 56,125.1 125.1,125.1 69.2,0 125.2,-56 125.2,-125.1"
         style="fill:#ed7d2b;fill-opacity:1;fill-rule:nonzero;stroke:none"
         id="path144" />
      <path
         d="m 18838.1,12115.4 -22.7,1.4 c 0.2,3.8 26.7,387.2 344.3,735.1 l 16.8,-15.4 c -312.3,-341.9 -338.2,-717.3 -338.4,-721.1"
         style="fill:#ed7d2b;fill-opacity:1;fill-rule:nonzero;stroke:none"
         id="path146" />
      <path
         d="m 19115.1,12791.2 v 0 c -14.3,14.2 -14.3,37.5 0,51.7 l 54.3,54.3 c 14.2,14.2 37.4,14.2 51.7,0 14.2,-14.2 14.2,-37.5 0,-51.7 l -54.3,-54.3 c -14.3,-14.2 -37.5,-14.2 -51.7,0"
         style="fill:#ed7d2b;fill-opacity:1;fill-rule:nonzero;stroke:none"
         id="path148" />
      <path
         d="M 25399,2224.7 H 8915.82 V 6509.8 H 25399 V 2224.7"
         style="fill:#ed7d2b;fill-opacity:1;fill-rule:nonzero;stroke:none"
         id="path150" />
      <path
         d="m 15550.7,6480.4 h -2965.1 v 4190.5 h 2965.1 V 6480.4"
         style="fill:#f99746;fill-opacity:1;fill-rule:nonzero;stroke:none"
         id="path152" />
      <path
         d="m 15806.2,10558.6 h -3476 v 1468.3 h 3476 v -1468.3"
         style="fill:#f99746;fill-opacity:1;fill-rule:nonzero;stroke:none"
         id="path154" />
      <path
         d="m 12330.2,10558.6 255.4,-368.2 h 2965.1 l 255.5,368.2 h -3476"
         style="fill:#ed7d2b;fill-opacity:1;fill-rule:nonzero;stroke:none"
         id="path156" />
      <path
         d="m 12437.1,6480.4 83.4,260.6 h 3094.6 l 68.3,-260.6 h -3246.3"
         style="fill:#ed7d2b;fill-opacity:1;fill-rule:nonzero;stroke:none"
         id="path158" />
      <path
         d="m 15450.8,12026.9 h 250.4 c 0,69.1 -56.1,125.1 -125.2,125.1 -69.1,0 -125.2,-56 -125.2,-125.1"
         style="fill:#2b478b;fill-opacity:1;fill-rule:nonzero;stroke:none"
         id="path160" />
      <path
         d="m 15564.6,12115.4 c -0.2,3.8 -26.4,379.5 -338.3,721.1 l 16.8,15.4 c 317.6,-347.9 344,-731.3 344.3,-735.1 l -22.8,-1.4"
         style="fill:#2b478b;fill-opacity:1;fill-rule:nonzero;stroke:none"
         id="path162" />
      <path
         d="m 15287.7,12791.2 v 0 c 14.2,14.2 14.2,37.5 0,51.7 l -54.3,54.3 c -14.2,14.2 -37.5,14.2 -51.7,0 -14.2,-14.2 -14.2,-37.5 0,-51.7 l 54.3,-54.3 c 14.2,-14.2 37.5,-14.2 51.7,0"
         style="fill:#2b478b;fill-opacity:1;fill-rule:nonzero;stroke:none"
         id="path164" />
      <path
         d="m 18272.3,7493.8 -42,-25.4 -57.3,94.6 42.1,25.4 57.2,-94.6"
         style="fill:#2b478b;fill-opacity:1;fill-rule:nonzero;stroke:none"
         id="path166" />
      <path
         d="m 13032.9,2224.7 c 0,0 612.3,1667.6 737.3,2189.5 107.3,448.1 291.8,915.2 622.8,1048 186.6,74.9 387.6,128.3 591.7,162.8 24.9,28.9 80.1,80.7 180.6,123.6 3.1,73.8 2,148.7 -7.4,212.6 v 0.1 c -102.1,77.6 -201.1,197 -257.9,380.3 -53.8,58.9 -100.2,152.5 -86.1,192.9 4.5,13 10.6,21.7 17.4,27.2 -8.2,13.5 -15.8,27.6 -22.5,42.7 -57.8,47 -49,163.9 -83.6,215.3 -41.9,62.2 -93.2,223 -50.8,273.8 42.3,50.8 60.7,117.2 71.7,256.9 11,139.7 111.7,76.2 196.4,94.7 84.7,18.4 67.8,45 110.1,146.6 42.4,101.6 135.5,93.2 279.5,63.5 143.9,-29.6 114.3,63.6 262.5,84.7 148.2,21.2 207.5,-118.5 337.8,-119.8 130.3,-1.2 153.4,-146.9 271.9,-223.1 118.6,-76.3 0,-329.2 0,-329.2 5.7,-56.7 0,0 58.9,-98.5 58.8,-98.5 -41.9,-158.1 -6.2,-285.1 35.8,-127 -96.6,-114.2 -96.6,-114.2 -0.5,-1.8 -1,-3.5 -1.4,-5.3 22.1,8.9 51.3,10.7 65.6,-30.2 21.4,-61.1 -95.6,-243.9 -167.5,-244 -49.6,-166 -119.8,-268.7 -196.8,-334.6 -4.2,-42.6 -9.1,-108.2 -8.4,-182.1 94.1,-30.6 162,-71.2 205.9,-103.7 224.3,101.5 834.4,416 1026.1,908.9 236.5,608 493.7,1164.3 493.7,1164.3 0,0 -98.3,359.4 -39.5,501.2 l -149.8,213.6 -66.1,-40.1 -42.1,69.5 51.3,31.1 c -22.7,18.5 -42.8,40.9 -58.8,67.3 -75.4,124.6 -35.5,286.7 89.1,362.1 124.5,75.5 286.7,35.6 362.1,-89 16,-26.5 26.5,-54.6 32.4,-83.3 l 51.3,31.1 42.1,-69.6 -65.9,-39.8 115.9,-219.5 c 41.8,16.5 74.3,20.4 88.8,1.6 101.6,-131.5 114.7,-250.8 95.2,-350 l 248.5,-470.3 -269.4,-163 -149,212.6 c -9.1,-38.2 -13.6,-65.2 -13.6,-65.2 0,0 286.2,-1114.3 -204,-1850.5 -213.4,-320.6 -537.4,-744.1 -835.2,-1120.1 25,-927.5 -68,-2405.6 -68,-2405.6 h -2588.6 c 0,0 3.1,299.2 12,714.5 l -323.2,-714.5 -860.2,-42.7"
         style="fill:#2b478b;fill-opacity:1;fill-rule:nonzero;stroke:none"
         id="path168" />
      <path
         d="m 10039.2,7493.8 -42.1,-25.4 -57.26,94.6 42.04,25.4 57.32,-94.6"
         style="fill:#2b478b;fill-opacity:1;fill-rule:nonzero;stroke:none"
         id="path170" />
      <path
         d="m 6159.8,5462.2 c 186.64,74.9 387.65,128.3 591.71,162.8 24.95,28.9 80.05,80.7 180.59,123.6 3.1,73.8 2,148.7 -7.41,212.6 l -0.01,0.1 c -102.04,77.6 -201.09,197 -257.9,380.3 -53.83,58.9 -100.2,152.5 -86.1,192.9 4.55,13 10.62,21.7 17.47,27.2 -8.25,13.5 -15.82,27.6 -22.52,42.7 -57.8,47 -49.06,163.9 -83.65,215.3 -41.88,62.2 -93.15,223 -50.81,273.8 42.34,50.8 60.69,117.2 71.71,256.9 11.01,139.7 111.77,76.2 196.46,94.7 84.68,18.4 67.74,45 110.08,146.6 42.34,101.6 135.5,93.2 279.46,63.5 143.96,-29.6 114.32,63.6 262.52,84.7 148.19,21.2 207.47,-118.5 337.79,-119.8 130.33,-1.2 153.37,-146.9 271.95,-223.1 118.59,-76.3 0,-329.2 0,-329.2 5.68,-56.7 0,0 58.85,-98.5 58.84,-98.5 -41.94,-158.1 -6.14,-285.1 35.79,-127 -96.66,-114.2 -96.66,-114.2 v 0 c -0.46,-1.8 -0.95,-3.5 -1.42,-5.3 22.16,8.9 51.36,10.7 65.68,-30.2 21.33,-61.1 -95.67,-243.9 -167.6,-244 -49.52,-166 -119.75,-268.7 -196.7,-334.6 -4.29,-42.6 -9.1,-108.2 -8.4,-182.1 94.1,-30.6 162,-71.2 205.89,-103.7 224.26,101.5 834.34,416 1026.04,908.9 236.48,608 493.74,1164.3 493.74,1164.3 0,0 -98.3,359.4 -39.53,501.2 l -149.74,213.6 -66.19,-40.1 -42.08,69.5 51.31,31.1 c -22.65,18.5 -42.75,40.9 -58.77,67.3 -75.4,124.6 -35.54,286.7 89.04,362.1 124.58,75.5 286.7,35.6 362.11,-89 16.02,-26.5 26.52,-54.6 32.44,-83.3 l 51.3,31.1 42.08,-69.6 -65.9,-39.8 115.91,-219.5 c 41.8,16.5 74.32,20.4 88.79,1.6 101.58,-131.5 114.68,-250.8 95.26,-350 l 248.45,-470.3 -269.39,-163 -149.04,212.6 c -9.07,-38.2 -13.56,-65.2 -13.56,-65.2 0,0 286.2,-1114.3 -203.99,-1850.5 C 9249.46,5472.5 8925.5,5049 8627.74,4673 8652.71,3745.5 8559.7,2267.4 8559.7,2267.4 H 5971.14 c 0,0 3.1,299.2 11.99,714.5 0,0 -154.32,2347.5 176.67,2480.3"
         style="fill:#2b478b;fill-opacity:1;fill-rule:nonzero;stroke:none"
         id="path172" />
      <path
         d="m 6823.18,5658.1 c 0,0 -635.12,572.4 -638.32,1168.3 -3.19,596 -41.04,1154.5 -41.04,1154.5 l -307.65,20.3 c 0,0 -608.02,-857.2 -430.22,-1645.3 177.79,-788.1 675.48,-2229.6 675.48,-2229.6 l 741.75,1531.8"
         style="fill:#2b478b;fill-opacity:1;fill-rule:nonzero;stroke:none"
         id="path174" />
      <path
         d="m 6143.82,7980.9 c 0,0 266.92,364.1 180.15,467.8 -86.77,103.6 -59.25,479.6 -204.06,467.8 -137.5,-11.2 -275.4,-394.4 -262.27,-492.8 13.14,-98.3 -21.47,-422.5 -21.47,-422.5 l 307.65,-20.3"
         style="fill:#2b478b;fill-opacity:1;fill-rule:nonzero;stroke:none"
         id="path176" />
      <path
         d="m 6332.54,8332.3 c 0,0 126.9,328.9 87.62,337.3 -39.29,8.4 -79.09,-55 -96.81,-89.8 -26.66,-52.4 -45.75,-58.2 -51.91,-64.6 -37.89,-39.2 61.1,-182.9 61.1,-182.9"
         style="fill:#2b478b;fill-opacity:1;fill-rule:nonzero;stroke:none"
         id="path178" />
      <path
         d="m 22749.5,7493.8 -42,-25.4 -57.3,94.6 42.1,25.4 57.2,-94.6"
         style="fill:#2b478b;fill-opacity:1;fill-rule:nonzero;stroke:none"
         id="path180" />
      <path
         d="m 18870.2,5462.2 c 186.6,74.9 387.6,128.3 591.7,162.8 24.9,28.9 80,80.7 180.6,123.6 3.1,73.8 2,148.7 -7.4,212.6 l -0.1,0.1 c -102,77.6 -201,197 -257.9,380.3 -53.8,58.9 -100.2,152.5 -86.1,192.9 4.6,13 10.7,21.7 17.5,27.2 -8.2,13.5 -15.8,27.6 -22.5,42.7 -57.8,47 -49.1,163.9 -83.7,215.3 -41.8,62.2 -93.1,223 -50.8,273.8 42.4,50.8 60.7,117.2 71.7,256.9 11.1,139.7 111.8,76.2 196.5,94.7 84.7,18.4 67.8,45 110.1,146.6 42.3,101.6 135.5,93.2 279.4,63.5 144,-29.6 114.4,63.6 262.6,84.7 148.2,21.2 207.4,-118.5 337.8,-119.8 130.3,-1.2 153.3,-146.9 271.9,-223.1 118.6,-76.3 0,-329.2 0,-329.2 5.7,-56.7 0,0 58.9,-98.5 58.8,-98.5 -42,-158.1 -6.2,-285.1 35.8,-127 -96.6,-114.2 -96.6,-114.2 -0.5,-1.8 -1,-3.5 -1.5,-5.3 22.2,8.9 51.4,10.7 65.7,-30.2 21.3,-61.1 -95.7,-243.9 -167.6,-244 -49.5,-166 -119.7,-268.7 -196.7,-334.6 -4.3,-42.6 -9.1,-108.2 -8.4,-182.1 94.1,-30.6 162,-71.2 205.9,-103.7 224.3,101.5 834.4,416 1026,908.9 236.5,608 493.8,1164.3 493.8,1164.3 0,0 -98.3,359.4 -39.5,501.2 l -149.8,213.6 -66.2,-40.1 -42.1,69.5 51.4,31.1 c -22.7,18.5 -42.8,40.9 -58.8,67.3 -75.4,124.6 -35.6,286.7 89,362.1 124.6,75.5 286.7,35.6 362.1,-89 16.1,-26.5 26.6,-54.6 32.5,-83.3 l 51.3,31.1 42.1,-69.6 -65.9,-39.8 115.9,-219.5 c 41.8,16.5 74.3,20.4 88.8,1.6 101.5,-131.5 114.6,-250.8 95.2,-350 l 248.4,-470.3 -269.3,-163 -149.1,212.6 c -9,-38.2 -13.5,-65.2 -13.5,-65.2 0,0 286.2,-1114.3 -204,-1850.5 -213.5,-320.6 -537.4,-744.1 -835.2,-1120.1 25,-927.5 -68,-2405.6 -68,-2405.6 h -2588.6 c 0,0 3.1,299.2 12,714.5 0,0 -154.3,2347.5 176.7,2480.3"
         style="fill:#2b478b;fill-opacity:1;fill-rule:nonzero;stroke:none"
         id="path182" />
      <path
         d="m 19533.5,5658.1 c 0,0 -635.1,572.4 -638.3,1168.3 -3.2,596 -41,1154.5 -41,1154.5 l -307.7,20.3 c 0,0 -608,-857.2 -430.2,-1645.3 177.8,-788.1 675.5,-2229.6 675.5,-2229.6 l 741.7,1531.8"
         style="fill:#2b478b;fill-opacity:1;fill-rule:nonzero;stroke:none"
         id="path184" />
      <path
         d="m 18854.2,7980.9 c 0,0 266.9,364.1 180.1,467.8 -86.7,103.6 -59.2,479.6 -204,467.8 -137.5,-11.2 -275.4,-394.4 -262.3,-492.8 13.2,-98.3 -21.5,-422.5 -21.5,-422.5 l 307.7,-20.3"
         style="fill:#2b478b;fill-opacity:1;fill-rule:nonzero;stroke:none"
         id="path186" />
      <path
         d="m 19042.9,8332.3 c 0,0 126.9,328.9 87.6,337.3 -39.3,8.4 -79.1,-55 -96.8,-89.8 -26.6,-52.4 -45.7,-58.2 -51.9,-64.6 -37.9,-39.2 61.1,-182.9 61.1,-182.9"
         style="fill:#2b478b;fill-opacity:1;fill-rule:nonzero;stroke:none"
         id="path188" />
      <path
         d="m 26146,5376.2 c 130.6,316.2 -461.6,650.1 -552.4,896.3 -90.7,246.3 516,641.7 23,1336 -127.8,179.9 -396.9,171.4 -562.1,145.6 -84.6,-13.1 -170.5,-16.7 -255.6,-7.4 -444.6,48.4 -713,-368.1 -773.2,-676.7 -34.5,-176.9 -26.4,-362 169.6,-478.3 12.2,-17.4 27.3,-29.5 44.2,-38.6 58.4,-713.4 302.8,-611.2 302.8,-611.2 14.8,-100.3 9.3,-227.2 -1,-335.4 -189.5,-20.1 -376.8,-53.1 -551.7,-99.5 0,0 -1634.5,363.5 -2060.3,780.5 -425.8,416.9 -849.4,782.9 -849.4,782.9 0,0 -53.6,336.2 -155.9,432.1 l 44.2,234.1 70.2,-8.4 8.8,73.7 -54.2,6.5 c 11.9,23.9 20,50.2 23.3,78.2 15.9,132.1 -78.4,252 -210.5,267.8 -132,15.8 -251.9,-78.4 -267.8,-210.5 -3.3,-28 -1.7,-55.4 4.2,-81.5 l -54.2,6.5 -8.8,-73.7 69.8,-8.4 -13.8,-226.2 c -40.9,-2.1 -69.5,-11.1 -74.5,-32.2 -35,-147.7 -0.9,-251.9 52.6,-327.1 l -29.6,-484.9 285.5,-34.3 44,233.1 c 22,-28.4 35.8,-49.1 35.8,-49.1 0,0 181.6,-1035.2 866.8,-1463.2 550.1,-343.7 1544.5,-837 1915.2,-1018.1 -8.4,-69.6 -19.6,-132 -35,-182.5 -157.1,-516.5 506.3,-1932.2 630.4,-1938.6 h 2265.5 c 0,0 -120,2937.6 -345.9,3112.5"
         style="fill:#2b478b;fill-opacity:1;fill-rule:nonzero;stroke:none"
         id="path190" />
      <path
         d="m 20595.7,6601.2 44.6,-5.4 12,100.3 -44.6,5.4 -12,-100.3"
         style="fill:#2b478b;fill-opacity:1;fill-rule:nonzero;stroke:none"
         id="path192" />
      <path
         d="m 14259.4,5026.5 c -242.1,447.9 -641,480.5 -641,480.5 -174.9,46.4 -362.2,79.4 -551.7,99.5 -10.3,108.2 -15.8,235.1 -1,335.4 0,0 244.4,-102.2 302.8,611.2 16.8,9.1 32,21.2 44.2,38.6 196,116.3 204.1,301.4 169.6,478.3 -60.2,308.6 -328.6,725.1 -773.2,676.7 -85.1,-9.3 -171,-5.7 -255.6,7.4 -165.2,25.8 -434.3,34.3 -562.1,-145.6 -493.1,-694.3 113.7,-1089.7 23,-1336 -90.8,-246.2 -683.1,-580.1 -552.4,-896.3 -225.9,-174.9 -345.9,-3112.5 -345.9,-3112.5 h 3465.8 c 0,0 -65.9,2287.7 -322.5,2762.8"
         style="fill:#1f3b63;fill-opacity:1;fill-rule:nonzero;stroke:none"
         id="path194" />
      <path
         d="m 11462,5376.2 c 0,0 -1019.7,-1263.7 -907.4,-1652.8 112.2,-389.1 853,-897.9 1047.6,-808.1 194.5,89.8 -140.2,2460.9 -140.2,2460.9"
         style="fill:#1f3b63;fill-opacity:1;fill-rule:nonzero;stroke:none"
         id="path196" />
      <path
         d="m 11802,7160.6 c 0,0 -80.1,-279.4 -416.8,-339.3 -336.8,-59.8 -172.1,-329.2 -224.5,-508.8 -52.4,-179.6 -329.3,-211.9 -276.9,-478.9 52.4,-267 -359.2,-501.4 291.8,-1032.6 651,-531.3 1242.2,1533.9 1242.2,1533.9 l -224.5,763.3 -391.3,62.4"
         style="fill:#1f3b63;fill-opacity:1;fill-rule:nonzero;stroke:none"
         id="path198" />
      <path
         d="m 19640.4,5026.5 c -242,447.9 -641,480.5 -641,480.5 -174.9,46.4 -362.2,79.4 -551.6,99.5 -10.3,108.2 -15.8,235.1 -1.1,335.4 0,0 244.5,-102.2 302.8,611.2 16.9,9.1 32,21.2 44.2,38.6 196.1,116.3 204.1,301.4 169.6,478.3 -60.1,308.6 -328.5,725.1 -773.1,676.7 -85.1,-9.3 -171,-5.7 -255.6,7.4 -165.2,25.8 -434.3,34.3 -562.1,-145.6 -493.1,-694.3 113.7,-1089.7 22.9,-1336 -90.7,-246.2 -683,-580.1 -552.3,-896.3 -225.9,-174.9 -346,-3112.5 -346,-3112.5 H 19963 c 0,0 -65.9,2287.7 -322.6,2762.8"
         style="fill:#1f3b63;fill-opacity:1;fill-rule:nonzero;stroke:none"
         id="path200" />
      <path
         d="m 16843.1,5376.2 c 0,0 -1019.7,-1263.7 -907.5,-1652.8 112.3,-389.1 853.1,-897.9 1047.6,-808.1 194.6,89.8 -140.1,2460.9 -140.1,2460.9"
         style="fill:#1f3b63;fill-opacity:1;fill-rule:nonzero;stroke:none"
         id="path202" />
      <path
         d="m 17183.1,7160.6 c 0,0 -80.2,-279.4 -416.9,-339.3 -336.7,-59.8 -172.1,-329.2 -224.5,-508.8 -52.3,-179.6 -329.2,-211.9 -276.8,-478.9 52.3,-267 -359.2,-501.4 291.8,-1032.6 651,-531.3 1242.1,1533.9 1242.1,1533.9 l -224.4,763.3 -391.3,62.4"
         style="fill:#1f3b63;fill-opacity:1;fill-rule:nonzero;stroke:none"
         id="path204" />
      <path
         d="m 8866.1,5362 c -130.65,316.2 461.61,650.1 552.36,896.3 90.75,246.3 -516.01,641.7 -22.97,1336 127.81,179.9 396.92,171.4 562.12,145.6 84.59,-13.1 170.49,-16.7 255.59,-7.4 444.6,48.4 713,-368.1 773.2,-676.7 34.4,-176.9 26.4,-362 -169.6,-478.3 -12.2,-17.4 -27.4,-29.5 -44.2,-38.6 -58.4,-713.4 -302.8,-611.2 -302.8,-611.2 -14.8,-100.3 -9.3,-227.2 1,-335.5 189.5,-20 376.8,-53 551.7,-99.4 0,0 1634.5,363.5 2060.3,780.5 425.8,416.9 849.4,782.9 849.4,782.9 0,0 53.6,336.2 155.9,432 l -44.2,234.2 -70.2,-8.4 -8.8,73.7 54.2,6.5 c -11.9,23.9 -20,50.2 -23.3,78.2 -15.9,132.1 78.4,252 210.5,267.8 132,15.8 251.9,-78.4 267.8,-210.5 3.3,-28 1.7,-55.5 -4.2,-81.5 l 54.2,6.5 8.8,-73.7 -69.9,-8.4 13.9,-226.2 c 40.9,-2.1 69.5,-11.1 74.4,-32.2 35,-147.7 1,-251.9 -52.5,-327.1 l 29.6,-485 -285.6,-34.2 -43.9,233.1 c -22,-28.4 -35.8,-49.1 -35.8,-49.1 0,0 -181.6,-1035.2 -866.8,-1463.2 -550.1,-343.7 -1955.4,-833.9 -1880.3,-1200.6 108.5,-528.9 -93.8,-1938.6 -93.8,-1938.6 H 8520.19 c 0,0 120.05,2937.6 345.91,3112.5"
         style="fill:#1d3356;fill-opacity:1;fill-rule:nonzero;stroke:none"
         id="path206" />
      <path
         d="m 14416.4,6587 -44.6,-5.4 -12,100.3 44.6,5.4 12,-100.3"
         style="fill:#1d3356;fill-opacity:1;fill-rule:nonzero;stroke:none"
         id="path208" />
      <path
         d="m 8866.1,5362 c 0,0 -1019.68,-1263.7 -907.44,-1652.8 C 8070.9,3320.1 8811.7,2811.3 9006.25,2901.1 9200.81,2990.9 8866.1,5362 8866.1,5362"
         style="fill:#1d3356;fill-opacity:1;fill-rule:nonzero;stroke:none"
         id="path210" />
      <path
         d="m 9206.09,7146.4 c 0,0 -80.11,-279.4 -416.84,-339.3 -336.72,-59.9 -172.1,-329.2 -224.48,-508.8 -52.38,-179.6 -329.24,-211.9 -276.86,-478.9 52.37,-267.1 -359.18,-501.4 291.83,-1032.7 651,-531.2 1242.14,1534 1242.14,1534 l -224.48,763.3 -391.31,62.4"
         style="fill:#1d3356;fill-opacity:1;fill-rule:nonzero;stroke:none"
         id="path212" />
      <path
         d="m 28471.6,5362 c 130.7,316.2 -461.6,650.1 -552.4,896.3 -90.7,246.3 516.1,641.7 23,1336 -127.8,179.9 -396.9,171.4 -562.1,145.6 -84.6,-13.1 -170.5,-16.7 -255.6,-7.4 -444.6,48.4 -713,-368.1 -773.2,-676.7 -34.4,-176.9 -26.4,-362 169.6,-478.3 12.2,-17.4 27.4,-29.5 44.2,-38.6 58.4,-713.4 302.8,-611.2 302.8,-611.2 14.8,-100.3 9.3,-227.2 -1,-335.5 -189.5,-20 -376.8,-53 -551.7,-99.4 0,0 -1634.5,363.5 -2060.3,780.5 -425.8,416.9 -849.4,782.9 -849.4,782.9 0,0 -53.6,336.2 -155.9,432 l 44.2,234.2 70.2,-8.4 8.8,73.7 -54.1,6.5 c 11.8,23.9 19.9,50.2 23.2,78.2 15.9,132.1 -78.4,252 -210.4,267.8 -132.1,15.8 -252,-78.4 -267.9,-210.5 -3.3,-28 -1.7,-55.5 4.2,-81.5 l -54.2,6.5 -8.8,-73.7 69.9,-8.4 -13.9,-226.2 c -40.9,-2.1 -69.5,-11.1 -74.4,-32.2 -35.1,-147.7 -1,-251.9 52.5,-327.1 l -29.6,-485 285.6,-34.2 43.9,233.1 c 22,-28.4 35.8,-49.1 35.8,-49.1 0,0 181.6,-1035.2 866.8,-1463.2 550.1,-343.7 1955.4,-833.9 1880.3,-1200.6 -108.5,-528.9 93.8,-1938.6 93.8,-1938.6 h 2802 c 0,0 -120,2937.6 -345.9,3112.5"
         style="fill:#1d3356;fill-opacity:1;fill-rule:nonzero;stroke:none"
         id="path214" />
      <path
         d="m 22921.3,6587 44.6,-5.4 12,100.3 -44.6,5.4 -12,-100.3"
         style="fill:#1d3356;fill-opacity:1;fill-rule:nonzero;stroke:none"
         id="path216" />
      <path
         d="m 28471.6,5362 c 0,0 1019.7,-1263.7 907.4,-1652.8 -112.2,-389.1 -853,-897.9 -1047.6,-808.1 -194.5,89.8 140.2,2460.9 140.2,2460.9"
         style="fill:#1d3356;fill-opacity:1;fill-rule:nonzero;stroke:none"
         id="path218" />
      <path
         d="m 28131.6,7146.4 c 0,0 80.1,-279.4 416.8,-339.3 336.8,-59.9 172.1,-329.2 224.5,-508.8 52.4,-179.6 329.3,-211.9 276.9,-478.9 -52.4,-267.1 359.2,-501.4 -291.8,-1032.7 -651,-531.2 -1242.2,1534 -1242.2,1534 l 224.5,763.3 391.3,62.4"
         style="fill:#1d3356;fill-opacity:1;fill-rule:nonzero;stroke:none"
         id="path220" />
      <path
         d="m 19096.4,7493.8 42.1,-25.4 57.2,94.6 -42,25.4 -57.3,-94.6"
         style="fill:#233862;fill-opacity:1;fill-rule:nonzero;stroke:none"
         id="path222" />
      <path
         d="m 24335.8,2224.7 c 0,0 -541.8,1697 -666.8,2219 -107.3,448 -362.3,885.7 -693.2,1018.5 -186.7,74.9 -387.7,128.3 -591.7,162.8 -25,28.9 -80.1,80.7 -180.6,123.6 -3.1,73.8 -2,148.7 7.4,212.6 v 0.1 c 102,77.6 201.1,197 257.9,380.3 53.8,58.9 100.2,152.5 86.1,192.9 -4.6,13 -10.6,21.7 -17.5,27.2 8.3,13.5 15.8,27.6 22.5,42.7 57.8,47 49.1,163.9 83.7,215.3 41.9,62.2 93.1,223 50.8,273.8 -42.3,50.8 -60.7,117.2 -71.7,256.9 -11,139.7 -111.8,76.2 -196.5,94.7 -84.7,18.4 -67.7,45 -110.1,146.6 -42.3,101.6 -135.5,93.2 -279.4,63.5 -144,-29.6 -114.3,63.6 -262.5,84.7 -148.2,21.2 -207.5,-118.5 -337.8,-119.8 -130.4,-1.2 -153.4,-146.9 -272,-223.1 -118.6,-76.3 0,-329.2 0,-329.2 -5.7,-56.7 0,0 -58.8,-98.5 -58.9,-98.5 41.9,-158.1 6.1,-285.1 -35.8,-127 96.7,-114.2 96.7,-114.2 0.4,-1.8 0.9,-3.5 1.4,-5.3 -22.2,8.9 -51.4,10.7 -65.7,-30.2 -21.3,-61.1 95.7,-243.9 167.6,-244 49.5,-166 119.8,-268.7 196.7,-334.6 4.3,-42.6 9.1,-108.2 8.4,-182.1 -94.1,-30.6 -162,-71.2 -205.9,-103.7 -224.2,101.5 -834.3,416 -1026,908.9 -236.5,608 -493.8,1164.3 -493.8,1164.3 0,0 98.3,359.4 39.6,501.2 l 149.7,213.6 66.2,-40.1 42.1,69.5 -51.3,31.1 c 22.6,18.5 42.7,40.9 58.7,67.3 75.4,124.6 35.6,286.7 -89,362.1 -124.6,75.5 -286.7,35.6 -362.1,-89 -16,-26.5 -26.5,-54.6 -32.5,-83.3 l -51.2,31.1 -42.1,-69.6 65.9,-39.8 -115.9,-219.5 c -41.8,16.5 -74.4,20.4 -88.8,1.6 -101.6,-131.5 -114.7,-250.8 -95.3,-350 l -248.4,-470.3 269.3,-163 149.1,212.6 c 9.1,-38.2 13.6,-65.2 13.6,-65.2 0,0 -286.2,-1114.3 203.9,-1850.5 213.5,-320.6 537.5,-744.1 835.2,-1120.1 -25,-927.5 68.1,-2405.6 68.1,-2405.6 l 3759.9,-42.7"
         style="fill:#233862;fill-opacity:1;fill-rule:nonzero;stroke:none"
         id="path224" />
      <path
         d="m 8791.73,7072 26.49,-100.3 -44.68,-11.8 -26.37,100.5 -117.07,-30.9 -77.67,231 c -18.41,-32 -29.52,-55.1 -29.52,-55.1 0,0 -31.09,-873.9 -501.61,-1437 -52.09,-62.6 -109.78,-121.3 -173.53,-174.6 -253.11,-211.7 -526.75,-468.8 -781.21,-703.3 -414.06,-381.4 -626.42,-934.1 -574.79,-1494.6 40.41,-439.5 73.97,-915 58.03,-1128.5 0,-1.2 -0.11,-2.5 -0.22,-3.7 -0.23,-2.3 -0.34,-4.5 -0.57,-6.8 l -2837.26,10.5 c 0,0 -145.58,119.5 -357.16,350.2 -60.72,788.6 -124.25,1865.8 -52.3,2217.6 -298.9,-29.2 -310.46,223.9 -266.8,322 43.77,98.2 -136.94,238.2 -253.44,489.8 -116.4,251.5 210,331.9 101.46,603.9 -108.53,272 -8.3,736.4 195.3,947.2 133.12,137.8 373.1,150.9 523.28,143.5 122.34,151.7 360.75,175.2 515.41,172.8 87.89,-1.5 175.89,7.1 261.19,28.5 445.61,112.2 777.62,-273.8 882.45,-579.2 60.16,-175.2 78.24,-364.7 -104.83,-510.8 -9.99,-19.4 -23.68,-33.9 -39.62,-45.6 41.53,-734.1 -221.68,-664.8 -221.68,-664.8 -0.79,-104.1 22.78,-232.5 48.6,-341.2 97.76,3.2 195.53,3 291.83,-0.8 141.54,-5.5 282.63,10.1 419.23,45.1 70.82,18.1 140.53,41.3 208.32,69.5 210.56,87.5 491.39,210.3 764.82,348.8 85.64,43.4 170.61,88.3 252.43,134.2 271.18,152.1 508.24,314.5 625.08,465.7 166.45,215.3 333.81,420.4 468.39,581.7 168.25,201.7 285.31,335.2 285.31,335.2 0,0 6.97,349.7 97.54,461.8 l -78.01,232 -70.26,-18.6 -19.42,73.8 54.22,14.2 c -18.64,27.3 -32.1,58.9 -38.72,93.7 -23.02,121.5 49.94,243.9 167.91,281.5 135.92,43.2 278.81,-36.5 314.61,-172.8 7.41,-28 9.66,-56.2 7.41,-83.5 l 54.1,14.3 19.42,-73.8 -69.93,-18.4 46.13,-228.3 c 41.99,3.6 72.29,-1.4 80.37,-22.2 56.46,-145.4 36.59,-256.3 -7.3,-340.3 l 98.78,-489.4 -124.14,-32.7"
         style="fill:#1f3b63;fill-opacity:1;fill-rule:nonzero;stroke:none"
         id="path226" />
      <path
         d="m 30510.9,2236.5 v -16 c 0,-19.1 -15.2,-34.7 -33.8,-34.7 H 2123.76 c -18.68,0 -33.89,15.6 -33.89,34.7 v 16 c 0,19 15.21,34.7 33.89,34.7 H 30477.1 c 18.6,0 33.8,-15.7 33.8,-34.7"
         style="fill:#2e3552;fill-opacity:1;fill-rule:nonzero;stroke:none"
         id="path228" />
      <path
         d="m 9014.86,13026.9 -55.22,-80.5 -137.27,-30 -5333.98,-1162.5 c 24.8,25.7 50.06,51.2 75.65,76.3 l 5272.14,1157.5 178.68,39.2"
         style="fill:#1f3b63;fill-opacity:1;fill-rule:nonzero;stroke:none"
         id="path230" />
      <path
         d="m 10597.7,12902.5 7,-1.1 -96.4,-499.1 -7.2,1.8 c 30.9,-21.6 66.7,-37.1 106,-44.7 150.5,-29.1 296.1,69.3 325.2,219.8 29,150.5 -69.4,296.1 -219.9,325.2 -39.2,7.6 -78.1,6.4 -114.7,-1.9"
         style="fill:#22407a;fill-opacity:1;fill-rule:nonzero;stroke:none"
         id="path232" />
      <path
         d="m 10604.7,12901.4 -275.5,41.9 -62.7,9.5 -988.52,150.2 -407.56,62 -63.16,-327 399.74,-102.4 969.6,-248.3 61.5,-15.8 270.2,-69.2 96.4,499.1"
         style="fill:#22407a;fill-opacity:1;fill-rule:nonzero;stroke:none"
         id="path234" />
      <path
         d="m 9277.98,13103 -407.56,62 -63.16,-327 399.74,-102.4 70.98,367.4"
         style="fill:#1f3b63;fill-opacity:1;fill-rule:nonzero;stroke:none"
         id="path236" />
      <path
         d="m 10329.2,12943.3 -62.7,9.5 -89.9,-465.5 61.5,-15.8 91.1,471.8"
         style="fill:#f99746;fill-opacity:1;fill-rule:nonzero;stroke:none"
         id="path238" />
      <path
         d="m 10629.6,12965.6 -83.1,12.6 -119.1,-616.7 81.4,-20.8 120.8,624.9"
         style="fill:#233862;fill-opacity:1;fill-rule:nonzero;stroke:none"
         id="path240" />
      <path
         d="m 30742.6,9209.2 -5091.6,3231.6 -116,73.7 -23.7,92.6 151,-96.1 5080.2,-3235.4 c 0.1,-21.9 0.1,-44.1 0.1,-66.4"
         style="fill:#1f3b63;fill-opacity:1;fill-rule:nonzero;stroke:none"
         id="path242" />
      <path
         d="m 24015.6,13025.1 -6.8,1.4 -79.3,-490.9 7.3,-0.7 c -35.7,-9.5 -73.8,-11.7 -112.5,-5.5 -148,23.9 -248.6,163.3 -224.7,311.3 23.9,148.1 163.3,248.7 311.3,224.8 38.6,-6.2 73.9,-20.4 104.7,-40.4"
         style="fill:#22407a;fill-opacity:1;fill-rule:nonzero;stroke:none"
         id="path244" />
      <path
         d="m 24008.8,13026.5 267.1,-54.2 60.8,-12.3 958.6,-194.5 395.2,-80.1 -51.9,-321.6 -401.6,40.4 -974.2,97.9 -61.8,6.2 -271.5,27.3 79.3,490.9"
         style="fill:#22407a;fill-opacity:1;fill-rule:nonzero;stroke:none"
         id="path246" />
      <path
         d="m 25295.3,12765.5 395.2,-80.1 -51.9,-321.6 -401.6,40.4 58.3,361.3"
         style="fill:#1f3b63;fill-opacity:1;fill-rule:nonzero;stroke:none"
         id="path248" />
      <path
         d="m 24275.9,12972.3 60.8,-12.3 -73.9,-457.9 -61.8,6.2 74.9,464"
         style="fill:#ed7d2b;fill-opacity:1;fill-rule:nonzero;stroke:none"
         id="path250" />
      <path
         d="m 24007.6,13093.8 80.5,-16.3 -98,-606.6 -81.8,8.3 99.3,614.6"
         style="fill:#233862;fill-opacity:1;fill-rule:nonzero;stroke:none"
         id="path252" />
      <path
         d="m 28979.6,15600.2 -3048.1,-147.7 -150,-7.3 61.1,-52 115,5.8 3055.2,152.7 -33.2,48.5"
         style="fill:#1f3b63;fill-opacity:1;fill-rule:nonzero;stroke:none"
         id="path254" />
      <path
         d="m 24554.7,15007.1 -5.3,-2.4 183.4,-374.5 5.3,3 c -19.8,-23.8 -44.8,-43.8 -74.3,-58.2 -113,-55.4 -249.4,-8.6 -304.7,104.3 -55.3,113 -8.6,249.4 104.4,304.7 29.4,14.4 60.4,21.9 91.2,23.1"
         style="fill:#22407a;fill-opacity:1;fill-rule:nonzero;stroke:none"
         id="path256" />
      <path
         d="m 24549.4,15004.7 209.2,92.3 47.6,21 750.6,331.1 309.5,136.5 120.2,-245.4 -294.6,-166.9 -714.6,-404.7 -45.4,-25.6 -199.1,-112.8 -183.4,374.5"
         style="fill:#22407a;fill-opacity:1;fill-rule:nonzero;stroke:none"
         id="path258" />
      <path
         d="m 25556.8,15449.1 309.5,136.5 120.2,-245.4 -294.6,-166.9 -135.1,275.8"
         style="fill:#1f3b63;fill-opacity:1;fill-rule:nonzero;stroke:none"
         id="path260" />
      <path
         d="m 24758.6,15097 47.6,21 171.1,-349.4 -45.4,-25.6 -173.3,354"
         style="fill:#ed7d2b;fill-opacity:1;fill-rule:nonzero;stroke:none"
         id="path262" />
      <path
         d="m 24515.9,15050.2 63.1,27.8 226.6,-462.8 -60,-33.9 -229.7,468.9"
         style="fill:#233862;fill-opacity:1;fill-rule:nonzero;stroke:none"
         id="path264" />
      <path
         d="m 15118.5,11153.8 h -1999 v 436.2 h 1999 v -436.2"
         style="fill:#ebf3fa;fill-opacity:1;fill-rule:nonzero;stroke:none"
         id="path266" />
      <path
         d="m 14384.7,11422 h -575.8 v 53.6 h 575.8 v -53.6"
         style="fill:#22407a;fill-opacity:1;fill-rule:nonzero;stroke:none"
         id="path268" />
      <path
         d="m 14657.5,11292.7 h -1121.3 v 53.7 h 1121.3 v -53.7"
         style="fill:#22407a;fill-opacity:1;fill-rule:nonzero;stroke:none"
         id="path270" />
      <path
         d="m 21256.1,11153.8 h -1999 v 436.2 h 1999 v -436.2"
         style="fill:#ebf3fa;fill-opacity:1;fill-rule:nonzero;stroke:none"
         id="path272" />
      <path
         d="m 20522.3,11422 h -575.7 v 53.6 h 575.7 v -53.6"
         style="fill:#22407a;fill-opacity:1;fill-rule:nonzero;stroke:none"
         id="path274" />
      <path
         d="m 20795.1,11292.7 h -1121.3 v 53.7 h 1121.3 v -53.7"
         style="fill:#22407a;fill-opacity:1;fill-rule:nonzero;stroke:none"
         id="path276" />
      <path
         d="m 26113.4,14630.2 c 0,0 1571.2,-3509.5 1884,-3040.2 312.8,469.3 -1858.5,3747.8 -1884,3040.2"
         style="fill:#f99746;fill-opacity:1;fill-rule:nonzero;stroke:none"
         id="path278" />
      <path
         d="m 6823.18,12037.2 c 0,0 -1152.77,-593.9 -1847.6,-665.3 -694.83,-71.4 -206.6,-536.8 163.79,-430.4 370.38,106.5 2037.62,906.3 1683.81,1095.7"
         style="fill:#f99746;fill-opacity:1;fill-rule:nonzero;stroke:none"
         id="path280" />
    </g>
  </g>
</svg>
